<?xml version="1.0" encoding="utf-8"?>
<!-- Generator: Adobe Illustrator 26.1.0, SVG Export Plug-In . SVG Version: 6.00 Build 0)  -->
<svg version="1.1" id="Layer_1" xmlns="http://www.w3.org/2000/svg" xmlns:xlink="http://www.w3.org/1999/xlink" x="0px" y="0px"
	 viewBox="0 0 1073 352" style="enable-background:new 0 0 1073 352;" xml:space="preserve">
<style type="text/css">
	.st0{display:none;}
	.st1{display:inline;}
	.st2{fill:#FFFFFF;}
	.st3{fill:none;}
	.st4{clip-path:url(#SVGID_00000062889147847558368760000001840254264767054243_);}
	.st5{display:inline;fill:#FFFFFF;}
</style>
<g id="KToqUf_00000014629194432336261010000017796244721567040930_" class="st0">
	<g class="st1">
		<g>
			<path d="M663.2-302c-14.3,0-28.6,0-42.9,0c-0.4-0.4-0.7-0.9-1.3-1.3c-4.1-2.8-7.9-5.9-12.5-8.4c-9.5-5.2-19.5-10.1-29.3-15
				c-32.8-16.7-66.3-32.8-100.8-48.3c-19.2-8.7-39.2-16.4-61.9-21.6c-22.5-5.1-42-12.9-58.5-23.2c-12-7.5-24-15-36-22.4
				c-13.7-8.5-28.6-16.2-46.5-21.7c-19.3-6-39.9-9.7-61.2-12.4c-28.5-3.6-57.5-5.2-86.5-7c-10.3-0.6-20.5-1.4-30.6-3.1
				c-10.5-1.7-21.1-3.2-31.9-4.1c-19.8-1.7-39.8-3.1-59.7-4.5c-11.4-0.8-22.9-1.5-34.3-2.4c-9.2-0.7-18.4-1.6-27.6-2.3
				c-4.4-0.3-8.8-0.4-13.2-0.5c-0.1,0.1-0.2,0.3-0.3,0.4c0.9,0.8,1.6,1.7,2.6,2.5c5.3,3.9,10.7,7.8,16,11.7c5,3.6,11,6.5,17.6,9
				c9,3.5,17.8,7.2,26.8,10.7c5.2,2,10.4,4.1,15.8,5.8c15.1,4.8,31.4,8,47.7,11c27.3,5,52,12.7,73.7,23.6
				c9.7,4.9,19.2,9.9,25.6,16.5c4.1,4.3,7.6,8.8,10.4,13.5c4.4,7.2,12,12.1,24.5,14.5c15.4,3,29.7,7.4,43.5,12.3
				c8.5,3,17.5,5.2,27.2,6.6c15.5,2.1,31.3,2.6,47.1,3.2c16.1,0.6,32.1,1.6,48,3.7c27.1,3.5,53.6,8.2,79.9,13.4
				c27.7,5.5,55.6,10.8,82.1,18.1c23.7,6.5,47.1,13.4,70.6,20.1c1.8,0.5,3.5,1.1,5.2,1.7c-19.4,0-38.8,0-58.2,0
				c-0.4-0.3-0.7-0.7-1.2-0.9c-18.2-9.2-38.4-16.6-60.4-22.3C432.4-335.6,390-340.6,346-341c-15.5-0.2-31.1-0.2-46.6-0.3
				c-12.8-0.1-25.7-0.4-38.2-2.4c-8.9-1.4-17.7-3-26.6-4.4c-4.1-0.7-8.2-1.1-12.3-1.7c0.7,0.5,1.5,0.8,2.3,1
				c26.5,6.9,54.5,10.6,83.1,13.3c12.5,1.2,25.1,2.4,37.2,4.5c32.3,5.5,60.7,15.4,86.3,28.2c0.5,0.3,0.7,0.7,1.1,1.1
				c-21.4,0-42.8,0-64.2,0c-0.4-0.3-0.6-0.7-1.1-0.9c-3.6-1.9-7.3-3.7-10.9-5.6c-14.7-8-32.1-12.1-51.9-13.1
				c-15.8-0.8-31.6-1.5-47.3-2.5c-8.5-0.5-17.1-1.3-25.5-2.2c-11.8-1.4-21.5-5.2-30.2-9.8c-7.6-4.1-15.1-8.2-24.2-11.2
				c-19-6.3-39.4-10.4-61.1-12.2c-9.2-0.8-18.5-0.9-27.8-0.3c-2.3,0.1-2.8,0.6-1.4,1.6c1.4,1.1,3.2,2.2,5.3,2.7
				c4.1,0.9,8.3,1.6,12.6,1.9c15.3,1.2,29.9,3.5,43,8.3c12.1,4.4,23.7,9.3,35.2,14.3c8.7,3.7,14.7,8.6,17.7,14.7
				c0.7,1.4,1.8,2.8,2.7,4.1c2.5,3.6,6.2,6.6,12.1,8.6c2.2,0.7,4.5,1.2,6.8,1.9c-19.9,0-39.7,0-59.6,0c-0.3-0.4-0.6-0.9-1-1.3
				c-6.2-5.4-13.8-10.1-22.2-14.4c-2.8-1.4-5.9-2.7-9.2-3.8c-10.2-3.4-21.5-4.4-33-4.7c-18.3-0.5-36.6-0.9-54.9-1.4
				c-15-0.4-29.9-1.4-44.6-3.2c-22.5-2.7-43.3-7.7-61.6-16c-1-0.5-2.1-0.9-3.1-1.3c-0.2,0.1-0.3,0.1-0.5,0.2
				c0.8,0.9,1.5,1.9,2.4,2.8c3.6,3.3,8.5,5.9,13.7,8.3c13.3,6.1,28.2,10.7,43.5,14.8c10.8,2.9,21.5,5.8,32.2,8.7
				c7.8,2.2,14,5.5,18.6,9.8c0.5,0.4,0.7,1,1,1.5c-44.5,0-89,0-133.4,0c-0.4-0.4-0.6-0.9-1.1-1.3c-2.8-2.1-6.4-3.6-10.5-4.4
				c-6.3-1.2-12.7-2.5-19.2-3.2c-15-1.6-27.3-5.6-37.4-12.2c-5.2-3.5-11.3-6.5-17-9.7c-0.7-0.4-1.7-0.5-2.5-0.8c0-9,0-18,0-27
				c4.8,2.2,9.3,4.7,14.4,6.7c11.6,4.5,23.6,8.7,35.2,13.1c9.2,3.5,18.7,6.8,27.3,10.8c7.9,3.7,15,8,22.1,12.2
				c6.8,4,14.7,6.7,24,7.8c5.2,0.6,10.5,1,15.7,1.3c9.3,0.5,18.7,0.8,28.1,0.2c1.6-0.1,3.2-0.5,4.8-0.7c-3.5-0.6-6.9-0.8-10.1-1.3
				c-17.1-2.8-31.8-8.2-45.3-14.9c-8.8-4.3-14.6-9.9-20.3-15.6c-3-3.1-6.5-6-10.3-8.7c-5.1-3.6-11.9-5.5-19.9-5.7
				c-0.5,0-1.1-0.1-2.3-0.3c1.3-0.6,2-1,2.9-1.4c8.6-3.2,18.1-4.2,28-3.9c10,0.3,19.9,1.4,29.3,3.3c14.8,3.1,29.5,6.4,44.2,9.6
				c16.8,3.7,33.9,7,51.9,8.3c12.1,0.9,24.4,1.2,36.6,1.5c12.8,0.3,25.6,0.8,38.2,2.6c5.6,0.8,11.4,1.5,17.3,1.1
				c-0.7-0.2-1.4-0.3-2.1-0.4c-9-1.3-18.1-2.4-27-4c-16.1-2.8-32-6.1-48.1-8.8c-15.1-2.5-30.5-4.5-45.7-7
				c-17.5-2.8-33.1-7.6-46-15.2c-6.5-3.8-13.4-7.4-19.9-11.3c-9.9-5.9-21.4-10.3-34.9-12.9c-9.6-1.9-19.1-3.9-28.7-5.8
				c-15.2-3-26.1-8.6-31.7-17.6c-2.8-4.5-6.2-8.9-9.7-13.2c-4-5-10.3-8.9-18-12.1c0-5.8,0-11.7,0-17.5c0.8,0.1,1.5,0.2,2.3,0.2
				c8.1,0.2,14.1,2.5,18.6,6.3c3.7,3.1,6.5,6.4,8,10.1c0.5,1.1,1.2,2.2,3.3,2.6c9.3,1.8,16.3,5.4,22.4,9.6
				c5.8,4.1,11.2,8.4,16.9,12.7c5.7,4.3,12.6,7.7,21.4,9.7c0.5,0.1,1.1,0.2,1.9,0.3c-0.3-0.6-0.6-1-0.8-1.4
				c-4.3-7.4-11.6-13.7-19.2-20c-7.1-5.9-14.8-11.5-21.1-17.7c-6.9-6.6-12.5-13.7-18.6-20.6c-4.5-5.1-9.6-9.8-17.4-13.5
				c-5.1-2.4-10.9-3.8-17.6-3.6c0-5.1,0-10.3,0-15.4c0.7,0.2,1.3,0.4,2,0.6c10.8,2.9,21.5,5.7,32.3,8.6c15.9,4.3,31.9,8.4,47,13.7
				c8,2.8,16.2,5.4,24.4,7.8c10.5,3.2,21.3,6,31.7,9.3c4.4,1.4,8.2,3.4,12,5c-0.5-2-2.1-4-4.8-5.6c-4.8-2.9-9.6-5.9-15.2-8.2
				c-15.1-6.2-30.6-12.1-46-17.9c-14.1-5.3-28.4-10.4-42.5-15.7c-9.4-3.5-18.6-7.4-28.1-10.8c-3.8-1.4-8.5-2-12.7-3c0-2.5,0-5,0-7.6
				c6.3-0.2,12.6-0.4,18.9-0.5c5.4-0.1,10.8-0.7,16.1-0.3c7.6,0.6,15.1,1.9,22.6,3c11.4,1.7,22.5,4,31.7,8.6
				c0.3,0.2,0.8,0.3,1.2,0.4c-0.2-0.5-0.6-0.9-1.1-1.3c-6.6-5.3-15.1-9.3-24.9-12.4c-14.2-4.6-29.5-7.8-45-10.5
				c-6.3-1.1-12.7-2.2-19.4-1.9c0-9.7,0-19.4,0-29.1c2.9,0.1,5.8,0.2,8.8,0.2c10.8,0,20.1,2.3,28.5,6c10.5,4.7,18.6,10.6,25.8,16.9
				c6.6,5.8,12.8,11.8,20.8,17c7.6,4.9,15.8,9.4,27.1,11c7.1,1,14.4,1.4,21.6,1.7c10.3,0.5,20.5,1.3,29.9,4.1c3,0.9,6.2,1.6,9.3,2.3
				c15.5,3.6,31.6,5.7,48.4,5c7.7-0.3,15.4-1.1,23.2-1.3c14.9-0.4,29.8-0.7,44.7-0.9c15.7-0.3,31.4-0.4,47,0.6
				c24.2,1.4,47.8,4.4,70.8,9c14.8,2.9,27.6,7.4,36.1,15.4c2.7,2.6,7.1,3.9,11.9,4.8c5.3,1,10.8,1.7,16,2.9c17.5,4,35,8,52.5,12.1
				c9,2.1,17.8,4.5,26.6,6.8c2.6,0.7,5,1.6,7.9,2.5c-3.3-3.8-7.5-7-12.9-9.5c-8.1-3.9-17.4-6.8-26.6-9.7
				c-23.8-7.5-47.5-15.1-70.4-23.5c-12.1-4.4-24-8.9-36.3-13.1c-14-4.8-29.2-8.2-44.1-11.9c-15.9-3.9-31.9-7.3-49.4-7.8
				c-3.3-0.1-6.6-1-9.8-1.8c-1.2-0.3-1.9-1.2-2.9-1.8c1.2-0.4,2.4-1,3.7-1.2c9.5-1.4,19.1-1.6,28.6-0.7c16.5,1.7,33.2,3.4,49.4,5.9
				c15,2.3,29.5,5.5,44.3,8.3c14.9,2.9,29.6,6.1,43,11c0.2,0.1,0.6,0.1,1.4,0.2c-5.8-3.7-11.8-6.6-18.3-9.3
				c-16.9-7.1-35.4-12.5-54.9-16.7c-12.3-2.7-24.9-4.9-38-5.9c-11.7-0.9-23.5-1.8-35.1-3.1c-17-1.8-34.1-3.5-51.5-3.4
				c-4.1,0-8.3-0.4-12.3-0.9c-7.2-1-12.6-3.8-18.1-6.5c-5.7-2.8-11.3-5.8-17.7-8c-22.7-7.7-47.5-11.6-73.5-13.1
				c-17.4-1-34-3.7-49.6-8.2c-26.4-7.7-52.7-15.5-79.1-23.2c-8.7-2.5-17.4-4.9-27-6.1c0-12.6,0-25.2,0-37.8c3.1,1.2,5.9,2.6,9.2,3.5
				c4.3,1.2,8.8,2.2,13.3,3c17.9,3.3,33.4,8.8,46.7,16.5c11.7,6.8,20.1,14.6,22.9,24.2c0.3,0.9,0.5,1.8,0.9,2.9
				c0.4-0.3,0.5-0.4,0.6-0.4c1.6-6.1,1.6-12.2-1-18.2c-4.4-10.3-14.1-18.9-26.5-26.4c-13.6-8.3-28.8-15.4-45.1-21.8
				c-6.7-2.6-14-4.9-21-7.3c0-4.9,0-9.7,0-14.6c0.4,0,0.8,0.1,1.1,0.1c7.1-0.1,14.1-0.2,21.2-0.3c12.1-0.2,22.8,2.1,32.5,6.2
				c11.6,4.8,20.5,11.1,28.5,17.8c3.2,2.7,6.1,5.6,9.4,8.5c-0.1-0.3,0-0.5-0.1-0.7c-3.2-4-5.8-8.2-9.6-11.9
				c-9.6-9.3-21.4-17.8-32.6-26.4c-10.3-7.9-22.6-14.3-37.9-18.6c-4-1.1-8.3-1.9-12.4-2.8c0-6.5,0-13,0-19.4
				c7.4,1.7,14.9,3.3,22.2,5.2c7.7,1.9,15.7,3.1,23.9,3.8c6.8,0.6,13.8,1,20.4,2c7.7,1.3,15.1,3.2,22.7,4.8c2.1,0.5,4.3,0.9,6.5,1.3
				c0.1-0.1,0.1-0.2,0.2-0.3c-1-0.4-2.1-0.8-3-1.2c-6.9-2.9-14-5.5-20.5-8.7c-7.7-3.8-14.8-8.1-22.1-12.2c-9.3-5.2-19-10.1-31.1-13
				c-6.2-1.5-12.7-1.5-19.2-1.1c0-4.1,0-8.3,0-12.4c0.4,0,0.8,0,1.1,0c5.1-0.8,10.3-1,15.5-0.3c22.7,2.8,41.2,9.7,55.8,20.1
				c5.8,4.1,10.7,8.7,16.2,12.9c6,4.5,13.5,7.9,23.1,9.3c7.5,1,15.2,0.7,22.7,0.3c9.2-0.5,18.4-1.2,27.6-0.7
				c16.9,0.9,33.7,1.8,50.5,2.7c29.1,1.5,58.2,3,87.3,4.6c17.9,1,35.1,3.5,51.5,7.8c14.6,3.8,29,7.9,43.7,11.5
				c15.2,3.7,29.3,8.4,41.6,14.7c13.2,6.7,26.1,13.7,38.9,20.7c15.7,8.6,32.8,15.9,52.7,20.8c11.7,2.9,23.9,4.8,36.2,6.6
				c19.8,2.8,37.7,7.6,52.1,16.3c9.3,5.6,20.7,9.3,33,12.3c12.6,3.1,24.1,7.4,34.1,12.9c10.3,5.6,19.8,11.7,28.7,18.1
				c11.6,8.3,22.9,16.7,36.3,24c13.9,7.6,26.8,15.7,39.1,24.2c9.9,6.8,19.9,13.6,30.3,20.1c9.4,5.9,19.8,11.3,32.5,14.9
				c6.7,1.9,13.6,3.5,20.4,5.4c8.6,2.3,16.8,5.1,24,8.8c1,0.5,1.8,1.1,3.1,1.9c-5.4,0.5-10,0.2-14.4-0.4
				c-15.7-2.2-30.5-5.9-44.6-10.3c-15.3-4.8-29.9-10.3-41.8-17.7c-7.8-4.9-14.8-10.4-21.4-15.9c-10.1-8.4-21.8-15.7-36.5-21.3
				c-11.1-4.2-22.2-8.6-33.5-12.7c-11.5-4.2-22.7-8.5-32-14.5c-17.7-11.4-35.8-22.6-53.7-33.8c-0.7-0.4-1.3-0.9-2-1.3
				c-0.3,0.4-0.2,0.6-0.1,0.8c4.1,7.4,8.8,14.7,12.3,22.1c3.9,8.5,11.3,15.3,23.3,20.7c11.4,5.1,21.3,11.2,29,18.3
				c4.6,4.3,8.6,8.8,12.4,13.4c3.7,4.4,8.6,7.9,15.9,10.4c8.7,3,17.4,6,25.9,9c12.5,4.5,23.3,10.1,31.3,17.5
				c3.7,3.4,7.6,6.7,11.4,10c5.8,5.1,13.7,8.6,23.7,10.6c8,1.6,16.3,2.3,24.6,3c13.8,1.2,27.7,2.2,41.5,3.7
				c15.5,1.8,30.9,4,46.3,6.1c2.5,0.3,5.1,0.5,7.7,0.7c0,3.4,0,6.8,0,10.3c-0.9,0.1-1.8,0.2-2.7,0.3c-16.8,1.1-33.6,1.3-50.4-0.3
				c-15.2-1.4-29.8-4-42.8-9c-9.3-3.6-18.4-7.5-27.6-11.3c-12.2-5.1-24.8-9.7-39.1-12.4c-3.9-0.7-8-1.2-12.1-1.7
				c-0.1,0.1-0.1,0.3-0.2,0.4c0.3,0.1,0.7,0.2,1,0.3c8.8,1.8,16.9,4.6,24.3,7.8c11.8,5.2,22.3,11.2,32.9,17.1
				c5.8,3.3,10.6,6.9,14.1,11.2c2.9,3.4,6,6.8,9.2,10.1c8.5,9,19.7,16.6,34.2,22.5c5.5,2.2,11.3,4.2,18.2,4.6
				c3.8,0.3,7.7,0.4,11.5,0.7c9.8,0.8,18.5,3.2,26.8,6.2c0.8,0.3,1.8,0.4,2.7,0.7c0,10.4,0,20.9,0,31.3c-0.9,0-1.9,0.2-2.8,0
				c-27.9-4.2-54.9-9.8-81.4-16.4c-17.8-4.4-34.3-10.1-48.5-17.9c-7.7-4.3-15.4-8.7-23.5-12.8c-20.8-10.6-43.6-19.2-70.3-24
				c-16.2-2.9-31.6-6.7-44.9-13c-8.8-4.2-17.6-8.4-26.4-12.6c-22.8-11-45.9-21.6-71.9-29.9c-12.3-3.9-24.4-8.2-37-11.8
				c-7.5-2.2-15.7-3.5-23.6-5.2c-0.3,0.2-0.5,0.4-0.8,0.6c1.3,0.6,2.8,1.1,4,1.8c14.2,8,27.1,16.7,38.4,26.2
				c10.4,8.7,22.4,16.6,36.4,23.3c7.4,3.6,14.2,7.6,20,12.1c3.7,2.9,6.6,6,8.1,9.5c0.9,2.1,1.7,4.2,2.3,6.3
				c1.7,5.9,4.2,11.6,9.6,16.7c6.6,6.3,15.7,11.1,26,15.3c18.6,7.6,36.9,15.4,54.2,24c16.7,8.3,32.8,17,46.5,27.1
				c7.6,5.7,16.5,10.6,26.3,15.1C612.4-325.3,637.8-313.7,663.2-302z M597.7-442.1c0.1-0.1,0.2-0.1,0.3-0.2
				c-0.2-0.2-0.5-0.4-0.7-0.5c-14.6-8.4-25.5-18.3-34.5-29c-6.4-7.6-12.2-15.4-18.2-23.1c-6.7-8.6-16.3-16-29.5-21.5
				c-8.4-3.5-17.2-6.8-26.1-9.9c-10.2-3.7-18.8-8.3-25.9-14c-3.1-2.5-6.4-5-10.3-7c-10.8-5.6-18.3-12.4-23.2-20.4
				c-5.8-9.5-12.7-18.8-19.3-28.1c-5.8-8.2-15.7-14.4-29-18.7c-5.8-1.9-11.7-3.8-17.9-5.3c-19.2-4.5-35.7-11.1-50-19.8
				c-9.4-5.7-19.2-11.2-30.2-15.9c-10.7-4.6-21.2-9.3-31.5-14.1c-19.5-9.2-39.4-18.1-61-25.7c-26.7-9.3-55.4-14.8-86.3-16.3
				c-13-0.6-26.1-0.5-39.2-0.7c-1.5,0-3,0.1-4.4,0.1c1,0.6,2.1,0.9,3.2,1.1c6,1,11.9,2.2,17.9,3c13.2,1.7,26.5,3.1,39.6,5
				c17.6,2.5,34.7,6.1,51,10.8c19.4,5.6,36.8,13,53.2,21.2c9.7,4.9,18.6,10.2,24.3,17.1c2.5,2.9,5,5.9,7.5,8.8
				c5.2,6.1,10.7,12,20,16.3c6.9,3.2,14.2,6.2,21.8,8.7c16.5,5.4,30.5,12.4,42.6,20.8c12.6,8.8,25.5,17.6,37.8,26.5
				c10.7,7.8,21.4,15.7,31,24c8.8,7.5,16.2,15.6,24.1,23.4c0.3,0.3,0.4,0.5,0.8,1.1c-1.5-0.4-2.5-0.6-3.5-1
				c-8.5-2.9-17.5-5-26.9-6.7c-14-2.5-28.1-4.9-42-7.6c-16.4-3.1-31.4-7.7-44.1-14.7c-3.7-2.1-7.7-4-11.5-6
				c-4.7-2.4-10.1-4.1-16.1-5.1c-8.1-1.4-16.5-1.5-24.9-1.9c-11.3-0.5-22.4-1.5-33-4.1c-2.9-0.7-5.7-1.4-9.2-2.3
				c0.5,0.6,0.7,0.9,1,1.1c6,4.5,12,9,20.5,12.1c1.8,0.7,3.5,1.4,5.2,2.2c16.6,7.4,33.1,14.8,49.8,22.1c9.6,4.2,20.5,6.9,32.5,7.8
				c6.2,0.5,12.4,0.8,18.5,1.4c10.2,1.1,19.3,3.8,28.5,6.5c20.7,6.2,39.7,13.9,58.5,21.8c24,10.1,48.2,20,74.5,27.9
				c21.6,6.5,42.7,13.4,63.1,21C583.7-447.2,590.7-444.6,597.7-442.1z M-89.1-707.2c-0.1,0.2-0.2,0.4-0.3,0.5
				c0.8,0.3,1.5,0.5,2.3,0.8c10.3,3.1,19.3,7.1,26.9,12.1c6.5,4.3,13,8.5,19.1,13c18.5,13.5,39.2,25.7,62.1,36.6
				c14.2,6.7,29.8,12.1,47.9,14.2c13.2,1.6,26.7,2.6,40.1,3.6c14.6,1.1,29.3,1.9,44,3.1c14.7,1.2,29,3.4,42.3,7.2
				c7.6,2.2,14.8,4.8,22.4,7c20,5.7,40.1,11.2,60.1,16.8c16.8,4.7,33.6,9.6,49.4,15.4c3.9,1.4,7.6,3,12,4.7c-0.6-0.6-0.8-0.8-1-1
				c-4.2-3-7.9-6.4-12.7-9c-18-9.9-36.2-19.6-54.6-29.2c-10.1-5.3-20.6-10.4-29.7-16.4c-17.5-11.4-35-22.7-52.7-34
				c-10-6.4-21.5-11.6-35.4-14.8c-22.4-5-45-9.6-68.2-13.1c-19.2-2.9-38.1-6.1-55.5-11.8c-13.3-4.4-26.7-8.6-37.7-14.9
				c-0.2-0.1-0.6-0.2-1.4-0.4c1,1.9,1.8,3.5,2.8,5.1c6,9.3,15.1,17.5,26.8,24.6c5,3.1,10.4,6,16.2,8.5c7,3,15.5,4,23.9,5.1
				c12.5,1.7,24.9,3.6,37.9,3.6c11,0,21.4,1.5,31.5,4.1c9.1,2.4,18.5,4.4,26.9,7.6c6.5,2.5,11.7,5.6,15.1,9.8
				c0.5,0.6,0.8,1.2,1.2,1.9c-1.1,0.2-1.9,0.3-2.7,0.4c-4,0.2-8,0.5-12,0.5c-15.6-0.1-31-1-46.4-2.4c-26.5-2.4-51.8-7.1-75.9-14.1
				c-17.5-5.1-34.2-10.8-49.2-18.2c-10.5-5.2-20.7-10.4-31.4-15.5c-10.2-4.8-21.5-8.6-34.2-10.5C-82.4-706.8-85.8-706.9-89.1-707.2z
				 M-131.3-472.5c2.7,3,5.4,5.6,7.4,8.4c4.5,6.2,10.7,11.7,17.9,16.9c12.9,9.2,23,19.4,30.8,30.4c5.5,7.9,12.2,15.4,20.3,22.5
				c13.4,11.7,31.1,20.2,54.2,24.6c19.8,3.7,40,3.5,60.3,2c11.8-0.9,23.6-1.9,35.4-2.8c13.8-1.1,27.6-1.2,41.5-0.8
				c12,0.3,23.8,1.5,35,4.3c10.6,2.6,19.5,6.3,24.7,12.5c1.7,1.9,2.2,2,6,1.4c0-0.2,0-0.4-0.1-0.5c-0.2-0.3-0.4-0.7-0.7-1
				c-2.5-3-5.8-5.7-10.6-7.5c-7.5-2.7-15-5.5-22.9-7.8c-13.2-3.9-23.6-9.4-30.1-17.2c-3.1-3.7-5.9-7.4-8.7-11.2
				c-5-6.7-11-13-20.6-17.8c-9.1-4.6-19.3-8.3-29.7-11.8c-17.5-5.8-36-10.2-55.1-13.5c-26.8-4.7-53.6-9.1-80.6-13.5
				c-16.9-2.7-33.2-6.1-48.4-11.3c-5.2-1.8-10.9-3.1-16.4-4.5C-124.8-471.5-127.9-471.9-131.3-472.5z M216.4-548
				c-0.2-0.8-0.2-1.2-0.3-1.5c-1.7-4.7-5.7-8.8-11.1-12.4c-12.3-8.2-27.7-13.7-44.8-17.8c-18.4-4.4-37.6-6.8-57.1-8.9
				c-15.9-1.7-31.8-3.3-47.6-5.2c-14.8-1.8-29.1-4.6-42-9.3c-13.3-4.9-24-11.2-29-20.1c-2.6-4.6-4.4-9.4-5.8-14.1
				c-2.6-8.7-8.9-16.2-19.4-22.5c-7.5-4.5-14.1-9.4-19.8-14.7c-10.9-10.1-24.1-19.2-38.5-27.7c-10.1-5.9-21.8-10.5-36.1-12.4
				c-3.9-0.5-7.8-0.8-11.8-1.2c-0.1,0.1-0.1,0.3-0.2,0.4c5.4,1.4,9.7,3.6,13.3,6.3c1.9,1.4,3.8,2.7,5.5,4.2
				c7.1,5.9,16.2,10.7,24.8,15.7c7.9,4.6,16,9.1,22.9,14.2c11.2,8.2,18.3,17.9,25,27.6c3.3,4.8,5.4,9.8,5,15.1
				c-0.5,5.9-0.6,11.9-1.5,17.8c-0.7,5.3-1.6,10.6-6.8,15.2c-0.1,0.1,0,0.2,0.1,0.3c4.6,1.4,9.7,1.4,14.8,1.3
				c5.6-0.1,11.2-0.4,16.8-0.2c9.6,0.3,18.9,2,28.1,3.6c15.5,2.7,30,6.6,42.7,12.6c4.4,2,9.1,3.8,13.8,5.7
				c8.1,3.2,16.9,4.9,26.8,4.9s19.8,0.1,29.8,0.3c10.1,0.2,20.3,0.3,30.4,1c16.1,1.1,30.7,4.8,44,10.1c6.1,2.4,11.7,5.3,17.7,7.8
				C209.1-550.3,212.5-549.3,216.4-548z M-8.3-639c-0.2,0.1-0.4,0.1-0.6,0.2c3.4,5,6.4,10.1,10.4,14.9c4.2,5.1,11.6,8.8,19.1,12.3
				c12,5.7,25.6,8.8,41.3,8.2c6.7-0.2,13.4-0.4,20-0.7c9.6-0.4,18.9,0.5,27.5,3.1c9.3,2.8,18.4,5.8,27.6,8.7
				c6.8,2.2,14,3.6,21.9,3.6c4.3,0,8.6,0,12.9,0c28.7,0,56.3,3.1,82.5,10.3c5.8,1.6,12.1,2.5,18.2,3.7c0.9,0.2,2,0.2,2.9,0.3
				s1.8,0.1,2.7,0.2c-12.9-2.8-23.8-7.4-35.1-11.7c-4.9-1.8-9.7-3.6-14.8-5.2c-19.3-5.9-40.1-9.2-61.4-11.6
				c-8.3-0.9-16.7-1.6-24.4-3.8c-5.9-1.7-11.5-3.8-17.2-5.7c-6.3-2.2-12.4-4.6-19.9-5.1c-4.3-0.3-8.7-0.3-13.1-0.4
				c-7-0.1-14.1,0.1-21-0.5c-29.5-2.6-55.8-9.6-79-20.6C-7.8-638.8-8.1-638.9-8.3-639z"/>
			<path d="M189.1-841.6c13.9,0,27.7,0,41.6,0c1.7,1,3.4,2.1,5.2,3c11.7,6.3,24.5,11.4,39.8,14.1c1.2,0.2,2.5,0.4,4.3,0.6
				c-0.7-0.9-1-1.5-1.6-1.9c-2.2-1.7-4.6-3.4-6.9-5.1c-2.1-1.6-4.6-3-6.1-4.7c-1.6-1.9-2.1-4-3-6.1c15.9,0,31.7,0,47.6,0
				c0.6,0.3,1.1,0.6,1.8,0.8c8.7,2,17.3,4.1,26.2,5.8c18.2,3.4,36.9,5.6,56.1,5.6c16.8,0,33.5,0,50.3,0.3
				c21.1,0.3,42.1,0.8,63.2,1.2c11,0.2,22-0.1,32.7,1.9c0.1,0,0.3,0,1.1-0.2c-1.2-1.4-2.1-2.8-3.6-4c-2.4-1.8-5.3-3.4-8-5
				c-3.6-2.2-7.4-4.3-11.1-6.5c27.9,0,55.7,0,83.6,0c-1.8,2.3-3.6,4.6-5.5,6.8c-4,4.8-7.8,9.6-12.1,14.2c-4.4,4.7-11.4,7.6-20.6,8.4
				c-7.1,0.6-14.2,1.1-21.3,1.3c-18.9,0.6-37.4-1.3-55.8-3.3c-9.6-1.1-19.4-2.1-29.1-2.5c-16.9-0.6-33.8,0.2-50.7,0.8
				c-8.4,0.3-16.9,0.2-25.3-0.2c-5.7-0.2-11.3-1.2-17-1.8c-9.4-1-18.9-1.9-28.3-3c-4.7-0.5-9.4-1.4-14.1-2c-3.8-0.4-7.7-0.7-11.6,0
				c8.3,0.4,15.8,2.2,23.1,4.2c14.7,4.1,29.5,8,44.8,11.3c27.1,5.9,55,9.3,83.7,10.5c16.8,0.7,33.6,1.6,50.3,2.5
				c14.2,0.7,28.3,1.4,42.6,1.3c15.3-0.1,29.4-2.4,41.7-7.7c6.5-2.8,12.6-6,19-9c19.4-9.1,38.9-18.1,58.3-27.1
				c3.4-1.6,6.7-3.2,10-4.7c20.6,0,41.1,0,61.9,0c0,6.2,0,12.4,0,18.6c-7.6,1.3-14.6,3.2-21.1,5.9c-8,3.3-16.3,6.1-25.8,7.6
				c-6.3,1-12,2.7-16.7,5.5c-1,0.6-2.4,1.2-3.7,1.6c-6.6,2.1-13.2,4-19.8,6.1c-16.8,5.2-33.6,10.3-51.6,14c-15.6,3.2-31.5,6-48,6.8
				c-19.6,1.1-39.2,1.8-58.8,2.7c-3.6,0.2-7.3,0.3-10.9,0.5c9.3,2,18.8,3.2,28.6,3.3c14,0.1,28,0.3,42,0.3c12.1,0,23.7,1.2,35,3.7
				c23.2,5.2,46.3,10.4,69.4,15.6c8.1,1.8,16,4.1,24.7,5c7.8,0.8,14.7,2.8,20.9,5.7c3.9,1.8,7.8,3.6,12,5c8.1,2.7,15.4,6,22.4,9.7
				c0.4,0.2,0.9,0.3,1.4,0.4c0,7.5,0,14.9,0,22.4c-0.8-0.5-1.7-0.9-2.4-1.4c-6.6-5-14-9.4-22.6-13.2c-10.6-4.6-21.2-9.3-31.8-13.8
				c-7.4-3.2-15.4-5.8-23.8-7.9c-12.6-3.2-25.6-4.8-39.3-3.4c-11.3,1.2-22,0.1-32.2-3c-5.3-1.6-10.7-3-15.7-4.8
				c-17.8-6.5-37-10.5-57.9-11.5c-15.6-0.7-31.3-1.2-47-1.7c-13.5-0.4-27-0.7-40.2-2.7c-11.4-1.8-22.7-3.7-32.2-8
				c-1.8-0.8-3.6-1.7-5.5-2.5c1.4,1.4,2.9,2.7,4.4,4.1c2.4,2.1,4.5,4.3,7.1,6.3c8.1,6.1,18.3,10.7,30.3,13.9
				c11.8,3.2,24.3,4.9,36.9,6.7c14.1,2,28.3,3.9,41.8,7c15.9,3.7,29.8,9,39.3,17.5c5.8,5.2,13.5,9.4,22,13.1
				c12.3,5.3,24.9,10.3,36.1,16.4c10.5,5.7,22.6,10,35.8,13.3c15.5,3.8,30.9,7.9,45.3,12.9c20,7,36.9,15.9,49.2,27.7
				c0.7,0.7,1.5,1.3,2.3,2c0,14.4,0,28.8,0,43.2c-3.8-1.8-7.7-3.5-11.4-5.4c-4.9-2.5-10.2-4.4-16.7-5.2c-6.8-0.8-12.1-3.1-16.1-6.4
				c-2.8-2.3-5.5-4.8-7.5-7.4c-3.3-4.5-6.4-9.1-8.8-13.7c-5.7-10.9-17-19.2-33.2-25.3c-15.9-6-33.1-10.4-51.1-13.7
				c-6.6-1.2-12.5-2.9-17.3-5.9c-2.8-1.8-6.1-3.1-10.1-3.6c-6.8-0.7-13.7-1.3-20.5-1.9c0,0.1-0.1,0.3-0.1,0.4c0.3,0.1,0.6,0.2,1,0.3
				c23.4,5.3,43.4,13.6,61.4,23.6c18.9,10.5,34,22.5,41.8,37.3c5.1,9.6,12.8,18.5,23.4,26.6c8.9,6.8,18.8,12.8,31.7,17
				c6.8,2.2,13.5,4.7,20.1,7.1c4.5,1.7,8.9,3.5,13.4,5.2c0,7.6,0,15.1,0,22.7c-19.4-5.4-33.8-14.2-46-24.3
				c-13-10.7-26.2-21.4-39.3-32.1c-13.9-11.3-27.8-22.7-43.8-33c-10.7-6.9-21.8-13.5-35.5-18.3c-7.3-2.6-15-4.8-22.4-7.2
				c-12.8-4.2-24.2-9.6-35.7-14.8c-15-6.8-31.4-11.9-49.7-15c-18.7-3.1-37.2-6.6-55.7-9.9c-9.4-1.7-18.5-4-28-5.3
				c-18.2-2.5-36.7-4.4-54.7-7.5c-9.9-1.7-20.2-1.3-30.8-1.2c0.5,0.3,0.7,0.4,0.9,0.5c6.3,2.3,12.9,4.2,20.2,5.1
				c2.5,0.3,4.9,0.7,7.3,1.2c19.8,4.6,39.1,9.7,58,15.6c13.7,4.3,26.2,9.5,37.1,16.1c13,7.9,27.5,14.8,42.1,21.6
				c11.4,5.3,22.1,11,31.8,17.4c8.1,5.3,16.9,10.3,26.8,14.6c11.6,4.9,23,9.9,34.8,14.7c21.8,8.8,41.9,18.7,58.1,31.1
				c7.6,5.9,15.4,11.7,24.8,16.7c7.8,4.1,15.9,7.9,23.7,12c21.8,11.3,46.2,19.9,73.8,25.4c0.8,0.2,1.6,0.2,2.4,0.3
				c0,3.8,0,7.6,0,11.3c-1.9-0.3-3.7-0.6-5.6-0.8c-41.8-5.4-77.5-17-107.5-34.9c-10.6-6.3-19-13.6-27.1-20.9
				c-14.1-12.7-30-24.5-51.5-33.3c-7.7-3.1-14.9-6.7-24.5-7.7c-3.6-0.4-7.2-0.9-10.9-1.2c-11.4-0.9-21.8-3.2-31-7.4
				c-14-6.3-28.2-12.3-42.2-18.6c-11.7-5.2-22.8-10.6-33.2-16.7c-7.7-4.5-15.4-9-23.5-13.3c-10.8-5.8-21.9-11.3-34-16.1
				c-13.2-5.3-27.6-9.2-41.9-13.3c-15.9-4.4-32-8.6-47.5-13.5c-14.9-4.7-29.3-9.9-43.6-15.2c-26.6-9.7-55.4-15-86.7-16.1
				c-10.8-0.4-21.7-0.9-32.4-1.8c-11.5-1-23-2.3-34.4-3.8c-14.7-1.9-29.5-2.4-44.5-1.4c-18.2,1.3-36.1,0.7-53.6-2.5
				c-6.2-1.2-12.5-2.3-17.8-4.7c-3.3-1.5-4.2-3.1-3.1-4.9c1-1.6,3.6-2.7,7.4-2.5c4.3,0.2,8.7,0.6,12.9,1.2c10,1.7,19.9,3.7,30,5.3
				c21.4,3.6,43.2,5.5,65.6,4.7c17-0.7,34.1-1.1,51.1-1.7c27.7-1,54.6,0.9,80.7,6.6c17.6,3.8,34,9,49.9,14.7
				c9.2,3.3,18.7,6.2,29.4,7.6c4.7,0.6,9.5,0.8,14.3-0.6c-0.7-0.3-1.2-0.5-1.7-0.6c-8.5-2.5-16-5.8-22.9-9.5
				c-7.9-4.2-15.6-8.5-23.6-12.7c-10.2-5.3-22.3-8.9-34.6-12.3c-18.6-5.2-38.3-8-58.8-9c-15.8-0.7-31.5-0.1-46.9,2.2
				c-19.5,2.8-39.2,2.6-59,1.5c-13-0.7-25.9-2-38.8-3.3c-14.5-1.4-28.9-3-42.8-5.9c-5.8-1.2-11.6-2-17.8-2.1
				c-7.5,0-14.9-0.2-22.4-0.3c-1.3,0-2.6-0.2-3.8-0.4c-7.4-1.4-13.8-3.7-19.8-6.5c-5.9-2.7-11.6-5.5-17.8-7.9
				c-13.6-5.3-28.9-8.5-44.4-11.3c-4.3-0.7-8.9-0.7-13.4-1c0-7.8,0-15.6,0-23.5c5.2,0.8,10.5,1.7,15.8,2.4c7.4,0.9,15,1.4,22.3,2.6
				c12.4,2,22.6,6.3,32.1,11.3c7.5,3.9,15.4,7.6,23.2,11.3c3.3,1.6,7.1,2.7,11.5,2.9c4,0.2,8,0.5,12,0.6c8.6,0.2,15.9,2,21.7,5.9
				c4.2,2.8,8.8,5.4,13.3,8.1c4.9,2.9,10.6,4.7,17.6,5.1c4,0.2,7.9,0.6,11.9,0.8c11.6,0.8,23.2,1.9,34.8,2.2
				c17.7,0.4,35.4,0.4,53,0.3c12.3-0.1,24.6-0.7,36.6-2.3c10.8-1.4,21.8-2.3,32.9-1.9c8.9,0.3,17.3,1.5,25.1,4.1
				c5.5,1.9,11,3.7,16.6,5.6c1.3,0.4,2.8,0.8,4.2,1.2c0.2-0.1,0.3-0.2,0.5-0.3c-0.9-0.9-1.8-1.8-2.8-2.7
				c-9.8-8.1-23.5-13.1-39.3-16.2c-9.7-1.9-19.7-2.6-30-1.7c-10.6,0.9-21.2,1.4-31.8,2C92-778,80-777.4,68-777.1
				c-8.2,0.2-16.5,0.4-24.6-0.1c-12.6-0.8-24.2-3.6-35.4-7c-14.7-4.3-29.2-8.8-44-13c-10.8-3.1-21.9-5.9-31.7-10.1
				c-6.4-2.7-12.5-5.6-18.9-8.4c-11.5-4.9-23.8-8.5-38.6-8.4c-6.1,0.1-11.3-1.5-15.5-4.1c-2.4-1.6-4.9-3.1-7.2-4.8
				c-4.3-3-8.5-6-12.7-9.1c5.7,0,11.4,0,17.1,0c0.4,0.2,0.7,0.5,1.1,0.6c6.4,2.7,13.2,5,20.9,6.1c15.1,2.2,29.1,5.8,43.1,9.7
				c2.3,0.6,4.5,1.4,7.2,2.3c-2.9-3.3-6.1-6.1-10.3-8.4c-5.4-2.9-10.9-5.8-16.3-8.7c-0.8-0.4-1.2-1.1-1.8-1.6c7.4,0,14.8,0,22.2,0
				c0.3,0.3,0.6,0.7,1.1,1c10.7,6,21.3,12.1,32.1,18.1c9.6,5.4,19.4,10.6,29,16c5.3,3,10.1,6.3,15.3,9.3c8.6,5,19.2,7.4,31.3,7.7
				c11.4,0.3,22.6-0.5,33.6-2.1c12.4-1.8,24.7-4,37.2-5.8c5-0.7,10.3-1.2,15.4-1.4c8.9-0.3,16,2.4,22.7,5.5c7.4,3.4,15.6,5.8,24.7,7
				c11.1,1.5,21.3,4.2,31,7.7c10,3.6,20.1,7.1,30.3,10.5c5.5,1.9,11.3,3.4,16.9,5.3c5.6,1.8,10.6,4.1,13.3,7.6
				c2.4,3.1,6.1,5.6,11,7.4c5.4,2,9.7,4.7,12.4,8.1c2.4,3.1,6.6,4.7,12.1,5.4c11.5,1.5,23.1,2,34.8,2.1c20.3,0.2,40.1,1.6,59.2,6
				c12.1,2.8,24.3,5.6,36.7,8c14.1,2.7,28.5,4.8,42.7,7.1c9.8,1.6,19.5,3.3,29.4,4.6c12.4,1.6,24.9,2.7,37.4,4.1
				c5.3,0.6,10.5,1.6,15.8,2.3c-0.6-0.4-1.3-0.6-2-0.8c-4.7-1.2-9.5-2.4-14.2-3.5c-12.1-2.9-22.9-6.9-31.5-12.8
				c-5.4-3.7-10.7-7.4-16-11.2c-5.6-4-11.8-7.6-19.8-10c-10-3-20.8-3.2-31.7-2.9c-8.1,0.3-16.4,0.9-24.4,0.4
				c-12.7-0.8-25.3-2.4-37.9-3.7c-12-1.2-22.8-4-32.6-8.3c-7.2-3.2-15.4-5.3-23.9-7.2c-9.7-2.2-19.2-4.8-28.7-7.3
				c-5.4-1.4-10.7-2.9-16.2-4.2c-19-4.4-38.2-8.6-57.1-13.3c-12.1-2.9-23.1-6.9-31.4-13.1c-10.5-7.8-24.9-12.9-39.6-17.3
				c-16.7-5-34.9-6.4-53.6-5.3c-9.9,0.6-19.8,1.4-29.7,2.2c-10.8,0.8-20.3-0.7-28.4-4.9c-2.4-1.3-4.9-2.5-7.4-3.7
				c-10.1-4.9-20.2-9.8-30.3-14.7c14.2,0,28.3,0,42.5,0c1.8,1,3.5,2,5.3,2.9c10.1,5.2,10.2,5.2,23.6,5.1c6.2,0,11.8,0.8,17.1,2.6
				c6.2,2.1,12.4,4.1,18.7,6.2c1,0.3,2.2,0.5,3.3,0.8c0.2-0.1,0.4-0.3,0.5-0.4c-1.8-1.2-3.4-2.5-5.4-3.5c-5-2.5-10.2-4.9-15.2-7.5
				c-3.4-1.7-6.2-3.7-7.7-6.3c10.5,0,20.9,0,31.4,0c0.3,0.4,0.5,0.8,0.9,1c6.1,4.3,12.3,8.6,18.4,12.9c0.3,0.2,0.8,0.4,1.7,0.8
				c-1.3-1.7-2.7-3-3.4-4.5c-1.8-3.4-3.4-6.9-5.1-10.3c7.4,0,14.8,0,22.2,0c6.5,7.1,15.6,13,26.4,18c2.2,1,5.3,1.8,8.1,1.9
				c5.3,0.3,9.8,1.4,13.6,3.5c5.8,3.2,12.5,5.8,19.6,8c21.6,6.6,43.5,12.7,64.7,19.7c23.4,7.7,49.1,11.8,76.2,12.2c3,0,6,0,9.1,0
				c-0.4-0.5-0.8-0.7-1.3-0.8c-34.7-11-69.4-22.1-104.3-32.9c-19.1-5.9-36.4-13.1-51.5-22C196.7-836.5,193-839.1,189.1-841.6z"/>
			<path class="st2" d="M-177-795.8c4.5,0.3,9.2,0.2,13.4,1c15.6,2.7,30.9,5.9,44.4,11.3c6.2,2.4,11.9,5.2,17.8,7.9
				c6,2.8,12.4,5.1,19.8,6.5c1.2,0.2,2.5,0.4,3.8,0.4c7.5,0.1,14.9,0.2,22.4,0.3c6.2,0,12,0.8,17.8,2.1c13.9,2.9,28.3,4.5,42.8,5.9
				c12.9,1.3,25.8,2.6,38.8,3.3c19.7,1.1,39.5,1.3,59-1.5c15.5-2.3,31.1-2.9,46.9-2.2c20.5,0.9,40.1,3.8,58.8,9
				c12.2,3.4,24.4,6.9,34.6,12.3c8,4.1,15.7,8.5,23.6,12.7c7,3.7,14.5,7,22.9,9.5c0.5,0.2,1,0.4,1.7,0.6c-4.8,1.4-9.6,1.2-14.3,0.6
				c-10.7-1.4-20.2-4.3-29.4-7.6c-15.9-5.7-32.4-10.9-49.9-14.7c-26.1-5.7-53-7.5-80.7-6.6c-17,0.6-34.1,1-51.1,1.7
				c-22.4,0.9-44.2-1.1-65.6-4.7c-10-1.7-19.9-3.7-30-5.3c-4.2-0.7-8.6-1-12.9-1.2c-3.8-0.2-6.4,0.9-7.4,2.5
				c-1.1,1.9-0.2,3.4,3.1,4.9c5.3,2.4,11.5,3.5,17.8,4.7c17.5,3.3,35.4,3.8,53.6,2.5c15-1,29.7-0.5,44.5,1.4
				c11.4,1.5,22.9,2.8,34.4,3.8c10.7,0.9,21.6,1.4,32.4,1.8c31.3,1,60.1,6.3,86.7,16.1c14.3,5.3,28.7,10.5,43.6,15.2
				c15.5,4.9,31.6,9,47.5,13.5c14.3,4,28.7,8,41.9,13.3c12.1,4.9,23.2,10.4,34,16.1c8.1,4.3,15.8,8.8,23.5,13.3
				c10.3,6.1,21.5,11.6,33.2,16.7c14,6.2,28.3,12.3,42.2,18.6c9.2,4.1,19.6,6.4,31,7.4c3.6,0.3,7.2,0.8,10.9,1.2
				c9.7,0.9,16.9,4.5,24.5,7.7c21.5,8.8,37.4,20.6,51.5,33.3c8.2,7.4,16.6,14.6,27.1,20.9c29.9,17.9,65.7,29.5,107.5,34.9
				c1.9,0.2,3.7,0.5,5.6,0.8c0,14.7,0,29.5,0,44.2c-2.6-0.2-5.2-0.4-7.7-0.7c-15.4-2-30.8-4.3-46.3-6.1c-13.7-1.6-27.6-2.5-41.5-3.7
				c-8.3-0.7-16.6-1.4-24.6-3c-10-2-17.9-5.5-23.7-10.6c-3.8-3.3-7.7-6.6-11.4-10c-8-7.3-18.7-12.9-31.3-17.5
				c-8.6-3.1-17.2-6.1-25.9-9c-7.3-2.5-12.2-6-15.9-10.4c-3.8-4.5-7.8-9.1-12.4-13.4c-7.7-7.1-17.6-13.2-29-18.3
				c-12-5.4-19.4-12.2-23.3-20.7c-3.4-7.5-8.1-14.8-12.3-22.1c-0.1-0.2-0.2-0.4,0.1-0.8c0.7,0.4,1.3,0.9,2,1.3
				c17.9,11.3,36,22.4,53.7,33.8c9.3,5.9,20.5,10.3,32,14.5c11.3,4.1,22.3,8.4,33.5,12.7c14.7,5.6,26.5,12.9,36.5,21.3
				c6.6,5.5,13.5,11,21.4,15.9c11.9,7.4,26.6,12.9,41.8,17.7c14.2,4.5,28.9,8.2,44.6,10.3c4.5,0.6,9.1,0.9,14.4,0.4
				c-1.3-0.8-2.1-1.4-3.1-1.9c-7.1-3.7-15.4-6.4-24-8.8c-6.8-1.8-13.7-3.5-20.4-5.4c-12.6-3.6-23-9-32.5-14.9
				c-10.4-6.6-20.5-13.3-30.3-20.1c-12.3-8.5-25.2-16.6-39.1-24.2c-13.4-7.4-24.7-15.8-36.3-24c-9-6.4-18.4-12.4-28.7-18.1
				c-10.1-5.5-21.5-9.8-34.1-12.9c-12.3-3-23.6-6.7-33-12.3c-14.5-8.7-32.4-13.5-52.1-16.3c-12.3-1.8-24.5-3.7-36.2-6.6
				c-19.9-4.9-37-12.2-52.7-20.8c-12.8-7-25.7-14-38.9-20.7c-12.4-6.3-26.5-11-41.6-14.7c-14.7-3.6-29.1-7.7-43.7-11.5
				c-16.4-4.3-33.7-6.8-51.5-7.8c-29.1-1.6-58.2-3.1-87.3-4.6c-16.8-0.9-33.7-1.8-50.5-2.7c-9.2-0.5-18.4,0.1-27.6,0.7
				c-7.6,0.4-15.3,0.8-22.7-0.3c-9.7-1.4-17.2-4.7-23.1-9.3c-5.6-4.2-10.5-8.8-16.2-12.9c-14.6-10.4-33.1-17.3-55.8-20.1
				c-5.2-0.6-10.4-0.5-15.5,0.3c-0.4,0.1-0.8,0-1.1,0C-177-777.4-177-786.6-177-795.8z"/>
			<path class="st2" d="M592.6-302c-1.7-0.6-3.4-1.2-5.2-1.7c-23.5-6.7-46.9-13.6-70.6-20.1c-26.5-7.3-54.4-12.6-82.1-18.1
				c-26.3-5.2-52.8-9.9-79.9-13.4c-15.8-2-31.8-3.1-48-3.7c-15.8-0.6-31.6-1.1-47.1-3.2c-9.7-1.3-18.7-3.6-27.2-6.6
				c-13.8-4.9-28.1-9.3-43.5-12.3c-12.6-2.4-20.2-7.4-24.5-14.5c-2.8-4.6-6.2-9.2-10.4-13.5c-6.4-6.6-15.9-11.6-25.6-16.5
				c-21.7-10.9-46.3-18.6-73.7-23.6c-16.3-3-32.6-6.2-47.7-11C1.7-461.9-3.5-464-8.7-466c-9-3.5-17.8-7.2-26.8-10.7
				c-6.6-2.6-12.6-5.5-17.6-9c-5.4-3.9-10.7-7.8-16-11.7c-1-0.8-1.8-1.6-2.6-2.5c0.1-0.1,0.2-0.3,0.3-0.4c4.4,0.2,8.8,0.2,13.2,0.5
				c9.2,0.7,18.4,1.6,27.6,2.3c11.4,0.9,22.9,1.5,34.3,2.4c19.9,1.4,39.8,2.8,59.7,4.5c10.7,0.9,21.4,2.4,31.9,4.1
				c10.1,1.7,20.3,2.5,30.6,3.1c29,1.8,58,3.4,86.5,7c21.2,2.7,41.9,6.4,61.2,12.4c17.9,5.5,32.8,13.1,46.5,21.7
				c12,7.5,24,15,36,22.4c16.5,10.3,36,18.1,58.5,23.2c22.7,5.2,42.7,13,61.9,21.6c34.4,15.5,68,31.6,100.8,48.3
				c9.8,5,19.8,9.9,29.3,15c4.6,2.5,8.4,5.6,12.5,8.4c0.5,0.4,0.9,0.8,1.3,1.3C611.1-302,601.8-302,592.6-302z M561.7-320.8
				c0.2-0.1,0.5-0.2,0.7-0.3c-0.7-0.8-1.2-1.7-2.2-2.3c-2-1.2-4.2-2.3-6.6-3.1c-6.6-2.2-13.2-4.4-20.2-6.2
				c-12.8-3.2-25.1-6.7-36.2-11.7c-7.4-3.3-14.7-6.7-22.4-9.7c-18.5-7.2-37.3-14.1-55.9-21.2c-10.6-4-21-8.3-32.9-11.1
				c-5.2-1.2-10.1-2.8-14.9-4.5c-6.8-2.4-13.7-4.4-21.4-5.6c-7.6-1.2-14.7-3-20.9-5.8c-8.1-3.7-17.1-6.3-27.1-7.7
				c-14-2.1-24.7-6.9-32.4-14c-4.5-4.1-8.8-8.3-13-12.6c-6.6-6.6-15.5-11.8-26.7-15.7c-17.8-6.2-36.9-10.4-57.1-13
				c-28.2-3.7-56.9-5.4-85.7-6.4c-22.5-0.8-44.6-2.9-66.5-5.8c-0.5-0.1-1.1-0.1-1.6-0.1c-0.1,0.1-0.2,0.2-0.3,0.3
				c0.6,0.4,1.2,0.8,2,1.1c5.1,2.1,10.3,4.3,15.4,6.4c6.4,2.6,13.3,4.5,20.8,5.6c5.9,0.9,11.8,1.6,17.7,2.5
				c14.8,2.3,29.5,4.7,44.2,7c9.1,1.4,18.2,2.7,26.6,5.2c11.8,3.5,23.5,7.1,35.3,10.5c11.3,3.2,19.8,8.2,25.6,14.6
				c3.5,3.9,6.9,7.8,10.3,11.7c2.4,2.8,4.8,5.5,8.7,7.7c5.9,3.3,13.3,4.4,21.1,4.8c11.6,0.6,22.9,1.8,34.1,3.8
				c19.1,3.4,37,8,53.1,14.9c11.4,4.9,23.8,8.9,37,12c27,6.4,53.1,13.7,78.7,21.8c13.7,4.3,27.8,8.1,42.8,10.5
				c9.6,1.5,19.3,3,28.9,4.5c13.4,2,25.5,5.7,36.9,10.2C559-321.8,560.4-321.3,561.7-320.8z"/>
			<path class="st2" d="M663.2-302c-25.4-11.6-50.8-23.3-76.2-34.9c-9.7-4.5-18.6-9.4-26.3-15.1c-13.6-10.1-29.8-18.8-46.5-27.1
				c-17.3-8.6-35.6-16.4-54.2-24c-10.2-4.2-19.4-9-26-15.3c-5.4-5.2-7.9-10.9-9.6-16.7c-0.6-2.1-1.4-4.2-2.3-6.3
				c-1.4-3.5-4.4-6.6-8.1-9.5c-5.8-4.5-12.6-8.5-20-12.1c-14.1-6.8-26.1-14.6-36.4-23.3c-11.3-9.5-24.1-18.2-38.4-26.2
				c-1.2-0.7-2.6-1.2-4-1.8c0.3-0.2,0.5-0.4,0.8-0.6c7.9,1.7,16.1,3,23.6,5.2c12.6,3.7,24.6,7.9,37,11.8c26,8.3,49.1,18.9,71.9,29.9
				c8.8,4.2,17.6,8.4,26.4,12.6c13.3,6.3,28.7,10.2,44.9,13c26.7,4.8,49.5,13.4,70.3,24c8,4.1,15.7,8.5,23.5,12.8
				c14.1,7.9,30.7,13.5,48.5,17.9c26.5,6.6,53.5,12.2,81.4,16.4c0.9,0.1,1.9,0,2.8,0c0,3.6,0,7.2,0,10.8c-0.8,0-1.5,0-2.3,0
				c-17.3-1.4-34.3-3.5-51-6.6c-21.7-4-42.7-9.1-63.6-14.3c-15.8-3.9-31.7-7.9-46.4-13.1c-7.4-2.7-15.2-4.9-23.6-6.4
				c-7.8-1.4-14.9-3.6-21.3-6.5c-1.7-0.8-3.5-1.4-5.4-2.1c-0.7-0.3-1.6-0.4-2.4-0.6c-0.1,0.1-0.2,0.2-0.3,0.3
				c0.6,0.3,1.2,0.6,1.8,0.9c4.5,2,8.9,4,13.4,6c10.7,4.8,20.5,10.1,27.2,17c3.8,3.9,7.3,7.9,11,11.8c5.7,6.2,14,10.9,25,13.9
				c3.2,0.9,6.4,1.7,9.7,2.5c8.3,2.1,16.5,4.3,22.7,8.3c4.2,2.6,8.2,5.4,11.9,8.2c8.5,6.5,16.7,13.1,25.4,19.5
				c8.9,6.6,20.1,11.4,34.2,13.7c3.7,0.6,7.3,1.4,10.8,2.4c3.6,1,6.9,2.4,10.4,3.7C710-302,686.6-302,663.2-302z"/>
			<path class="st2" d="M-177-612.6c9.6,1.2,18.3,3.6,27,6.1c26.4,7.7,52.7,15.5,79.1,23.2c15.6,4.5,32.2,7.2,49.6,8.2
				c26,1.5,50.8,5.4,73.5,13.1c6.4,2.2,11.9,5.2,17.7,8c5.5,2.7,10.9,5.5,18.1,6.5c4,0.5,8.2,0.9,12.3,0.9c17.4,0,34.4,1.7,51.5,3.4
				c11.6,1.2,23.4,2.2,35.1,3.1c13.1,1,25.7,3.2,38,5.9c19.5,4.2,38,9.6,54.9,16.7c6.4,2.7,12.5,5.7,18.3,9.3
				c-0.8-0.1-1.2-0.1-1.4-0.2c-13.4-4.9-28.1-8.1-43-11c-14.7-2.8-29.3-6-44.3-8.3c-16.3-2.5-32.9-4.2-49.4-5.9
				c-9.5-1-19.2-0.7-28.6,0.7c-1.3,0.2-2.5,0.8-3.7,1.2c1,0.6,1.7,1.5,2.9,1.8c3.2,0.8,6.5,1.7,9.8,1.8c17.5,0.4,33.5,3.9,49.4,7.8
				c15,3.6,30.1,7.1,44.1,11.9c12.2,4.2,24.2,8.7,36.3,13.1c23,8.4,46.7,16,70.4,23.5c9.2,2.9,18.4,5.8,26.6,9.7
				c5.4,2.6,9.5,5.7,12.9,9.5c-2.9-0.9-5.3-1.9-7.9-2.5c-8.8-2.3-17.6-4.7-26.6-6.8c-17.4-4.1-34.9-8.2-52.5-12.1
				c-5.2-1.2-10.7-1.9-16-2.9c-4.8-0.9-9.2-2.3-11.9-4.8c-8.5-8-21.3-12.5-36.1-15.4c-23-4.5-46.6-7.5-70.8-9
				c-15.7-0.9-31.3-0.8-47-0.6c-14.9,0.3-29.8,0.5-44.7,0.9c-7.7,0.2-15.4,1-23.2,1.3c-16.8,0.7-32.9-1.3-48.4-5
				c-3.1-0.7-6.3-1.4-9.3-2.3c-9.4-2.8-19.5-3.6-29.9-4.1c-7.3-0.4-14.6-0.8-21.6-1.7c-11.3-1.6-19.5-6.1-27.1-11
				c-8-5.2-14.2-11.2-20.8-17c-7.2-6.4-15.3-12.3-25.8-16.9c-8.4-3.7-17.7-6-28.5-6c-2.9,0-5.8-0.1-8.8-0.2c0-4.9,0-9.7,0-14.6
				c3.1,0.4,6.2,0.7,9.2,1.3c13.8,2.8,26.4,6.9,37.8,12.1c10.4,4.7,20.3,9.8,30.2,14.8c4.7,2.4,10.1,3.6,16.2,3.5
				c8.6,0,16.6,1.2,23.7,3.7c9.9,3.6,19.5,7.3,29,11.2c13.2,5.4,27.8,8.7,43.9,9c15.8,0.3,31.5,0.1,47.3,0c4.9,0,8.9-1.9,13.2-3.2
				c-1.4-0.2-2.7-0.2-4.1-0.3s-2.7-0.2-4.1-0.3c-15.9-1.6-30.9-4.8-44.6-9.8c-11.1-4.1-22.1-8.4-32.5-13
				c-17.3-7.7-35.9-13.8-57.5-16.3c-13.9-1.6-26.6-4.9-38.4-9.4c-8.7-3.4-17.9-6.4-27.9-8.3c-9.2-1.7-18.6-3.1-27.8-4.8
				c-4.6-0.8-9.1-1.8-13.7-2.7C-177-601.4-177-607-177-612.6z"/>
			<path class="st2" d="M746.4-515.7c-0.8-0.1-1.7-0.2-2.4-0.3c-27.6-5.5-52-14.1-73.8-25.4c-7.8-4.1-16-7.9-23.7-12
				c-9.4-5-17.2-10.8-24.8-16.7c-16.2-12.4-36.2-22.3-58.1-31.1c-11.8-4.7-23.2-9.7-34.8-14.7c-9.9-4.2-18.7-9.2-26.8-14.6
				c-9.7-6.4-20.3-12.1-31.8-17.4c-14.6-6.8-29.1-13.7-42.1-21.6c-10.8-6.6-23.3-11.8-37.1-16.1c-18.8-5.8-38.2-11-58-15.6
				c-2.3-0.5-4.8-0.9-7.3-1.2c-7.3-0.9-13.9-2.8-20.2-5.1c-0.2-0.1-0.4-0.2-0.9-0.5c10.6-0.1,20.9-0.5,30.8,1.2
				c18,3.1,36.5,5,54.7,7.5c9.5,1.3,18.7,3.6,28,5.3c18.5,3.4,37.1,6.8,55.7,9.9c18.3,3.1,34.7,8.2,49.7,15
				c11.5,5.2,22.9,10.6,35.7,14.8c7.4,2.5,15.1,4.6,22.4,7.2c13.7,4.8,24.9,11.4,35.5,18.3c16,10.4,29.9,21.7,43.8,33
				c13.2,10.7,26.3,21.4,39.3,32.1c12.3,10.1,26.6,18.8,46,24.3C746.4-531.5,746.4-523.6,746.4-515.7z"/>
			<path class="st2" d="M-8.5-841.6c10.1,4.9,20.2,9.8,30.3,14.7c2.5,1.2,4.9,2.4,7.4,3.7c8.2,4.2,17.7,5.8,28.4,4.9
				c9.9-0.8,19.8-1.6,29.7-2.2c18.7-1.1,36.9,0.2,53.6,5.3c14.7,4.4,29.1,9.5,39.6,17.3c8.3,6.2,19.3,10.2,31.4,13.1
				c18.9,4.6,38.1,8.8,57.1,13.3c5.5,1.3,10.8,2.8,16.2,4.2c9.6,2.5,19,5.1,28.7,7.3c8.4,1.9,16.7,4,23.9,7.2
				c9.8,4.3,20.6,7.1,32.6,8.3c12.6,1.3,25.2,2.9,37.9,3.7c8,0.5,16.3-0.1,24.4-0.4c11-0.4,21.7-0.2,31.7,2.9
				c7.9,2.4,14.1,6,19.8,10c5.3,3.7,10.6,7.5,16,11.2c8.6,5.9,19.3,9.9,31.5,12.8c4.8,1.1,9.5,2.3,14.2,3.5c0.7,0.2,1.4,0.4,2,0.8
				c-5.3-0.8-10.5-1.7-15.8-2.3c-12.4-1.4-25-2.5-37.4-4.1c-9.9-1.3-19.6-3-29.4-4.6c-14.3-2.3-28.6-4.5-42.7-7.1
				c-12.4-2.3-24.6-5.2-36.7-8c-19-4.4-38.9-5.8-59.2-6c-11.7-0.1-23.3-0.6-34.8-2.1c-5.6-0.7-9.7-2.4-12.1-5.4
				c-2.7-3.4-7-6.1-12.4-8.1c-4.9-1.9-8.5-4.3-11-7.4c-2.7-3.5-7.7-5.8-13.3-7.6c-5.5-1.8-11.4-3.4-16.9-5.3
				c-10.2-3.4-20.4-6.9-30.3-10.5c-9.7-3.5-19.9-6.2-31-7.7c-9.1-1.2-17.3-3.7-24.7-7c-6.7-3.1-13.8-5.8-22.7-5.5
				c-5.2,0.2-10.4,0.6-15.4,1.4c-12.4,1.8-24.7,4-37.2,5.8c-11,1.6-22.2,2.4-33.6,2.1c-12.1-0.3-22.7-2.7-31.3-7.7
				c-5.2-3-10-6.3-15.3-9.3c-9.5-5.4-19.4-10.7-29-16c-10.7-6-21.4-12-32.1-18.1c-0.5-0.3-0.7-0.6-1.1-1
				C-54.4-841.6-31.5-841.6-8.5-841.6z"/>
			<path class="st2" d="M746.4-634.4c-0.8-0.7-1.6-1.3-2.3-2c-12.3-11.7-29.2-20.6-49.2-27.7c-14.5-5.1-29.8-9.2-45.3-12.9
				c-13.3-3.2-25.3-7.5-35.8-13.3c-11.2-6.1-23.8-11.1-36.1-16.4c-8.5-3.7-16.2-7.9-22-13.1c-9.5-8.6-23.5-13.8-39.3-17.5
				c-13.5-3.2-27.7-5-41.8-7c-12.5-1.8-25.1-3.5-36.9-6.7c-12-3.3-22.2-7.8-30.3-13.9c-2.6-2-4.7-4.2-7.1-6.3
				c-1.5-1.3-3.1-2.6-4.4-4.1c1.8,0.8,3.6,1.7,5.5,2.5c9.5,4.3,20.8,6.2,32.2,8c13.2,2,26.7,2.3,40.2,2.7c15.7,0.5,31.3,1,47,1.7
				c20.9,1,40.1,5,57.9,11.5c5,1.8,10.4,3.3,15.7,4.8c10.2,3,20.9,4.1,32.2,3c13.8-1.4,26.7,0.2,39.3,3.4c8.4,2.1,16.4,4.7,23.8,7.9
				c10.6,4.6,21.2,9.2,31.8,13.8c8.6,3.8,16.1,8.2,22.6,13.2c0.7,0.5,1.6,0.9,2.4,1.4c0,6.5,0,13,0,19.4c-0.5-0.2-1.1-0.3-1.4-0.5
				c-2.1-1.3-4.1-2.6-6.1-3.9c-9.1-5.9-19.6-10.7-32.2-13.9c-7.9-2-15.8-3.9-23.6-6.1c-11.1-3.2-22-6.6-33-9.9
				c-7.9-2.4-16.1-4.4-25-5.4c-4.9-0.6-10.1-1-14.7-2.1c-13-3.4-25.7-7.4-36.9-12.6c-0.6-0.3-1.3-0.5-1.9-0.8
				c-0.2,0.1-0.4,0.2-0.6,0.3c4.9,4,9.2,8.3,14.9,11.9c8.8,5.6,18.9,10.4,29.8,14.6c11.7,4.5,24.7,7.4,37.7,10.2
				c12.6,2.7,25.3,5.1,36.9,9c22.3,7.5,41.4,17.2,55.9,29.8C746.4-652.4,746.4-643.4,746.4-634.4z"/>
			<path class="st2" d="M-177-442.9c7.7,3.1,13.9,7.1,18,12.1c3.5,4.3,6.9,8.7,9.7,13.2c5.6,9,16.5,14.6,31.7,17.6
				c9.6,1.9,19.1,4,28.7,5.8c13.5,2.6,25,7,34.9,12.9c6.5,3.8,13.4,7.4,19.9,11.3c12.9,7.6,28.5,12.4,46,15.2
				c15.2,2.4,30.6,4.4,45.7,7c16.1,2.7,32,6,48.1,8.8c8.9,1.5,18,2.6,27,4c0.7,0.1,1.4,0.2,2.1,0.4c-5.9,0.4-11.6-0.3-17.3-1.1
				c-12.6-1.8-25.3-2.3-38.2-2.6c-12.2-0.3-24.5-0.7-36.6-1.5c-17.9-1.3-35-4.6-51.9-8.3c-14.7-3.3-29.4-6.6-44.2-9.6
				c-9.4-2-19.3-3-29.3-3.3c-9.9-0.3-19.5,0.6-28,3.9c-0.9,0.3-1.6,0.7-2.9,1.4c1.2,0.2,1.7,0.3,2.3,0.3c8,0.2,14.9,2.1,19.9,5.7
				c3.8,2.7,7.3,5.7,10.3,8.7c5.7,5.7,11.5,11.2,20.3,15.6c13.5,6.7,28.1,12,45.3,14.9c3.2,0.5,6.6,0.8,10.1,1.3
				c-1.6,0.3-3.1,0.6-4.8,0.7c-9.4,0.7-18.7,0.4-28.1-0.2c-5.3-0.3-10.6-0.7-15.7-1.3c-9.3-1.2-17.2-3.9-24-7.8
				c-7.2-4.2-14.2-8.5-22.1-12.2c-8.6-4-18-7.3-27.3-10.8c-11.7-4.4-23.6-8.6-35.2-13.1c-5.1-2-9.6-4.4-14.4-6.7
				C-177-388-177-415.4-177-442.9z"/>
			<path class="st2" d="M684.5-841.6c-3.3,1.6-6.7,3.2-10,4.7c-19.4,9-38.9,18.1-58.3,27.1c-6.4,3-12.4,6.2-19,9
				c-12.3,5.3-26.4,7.6-41.7,7.7c-14.3,0.1-28.4-0.5-42.6-1.3c-16.8-0.9-33.5-1.8-50.3-2.5c-28.8-1.2-56.7-4.6-83.7-10.5
				c-15.3-3.3-30.1-7.2-44.8-11.3c-7.3-2.1-14.9-3.8-23.1-4.2c3.9-0.7,7.8-0.4,11.6,0c4.7,0.6,9.4,1.4,14.1,2c9.4,1.1,18.9,2,28.3,3
				c5.7,0.6,11.3,1.6,17,1.8c8.4,0.3,16.9,0.4,25.3,0.2c16.9-0.6,33.8-1.4,50.7-0.8c9.8,0.4,19.5,1.4,29.1,2.5
				c18.5,2,37,3.9,55.8,3.3c7.1-0.2,14.2-0.7,21.3-1.3c9.2-0.8,16.2-3.6,20.6-8.4c4.3-4.7,8.1-9.5,12.1-14.2
				c1.9-2.3,3.6-4.5,5.5-6.8C629.7-841.6,657.1-841.6,684.5-841.6z"/>
			<path class="st2" d="M746.4-723.7c-0.5-0.1-1-0.2-1.4-0.4c-6.9-3.6-14.2-7-22.4-9.7c-4.2-1.4-8.2-3.2-12-5
				c-6.2-2.9-13.1-4.9-20.9-5.7c-8.8-0.9-16.6-3.2-24.7-5c-23.1-5.2-46.3-10.4-69.4-15.6c-11.2-2.5-22.9-3.7-35-3.7
				c-14,0-28-0.1-42-0.3c-9.8-0.1-19.3-1.3-28.6-3.3c3.6-0.2,7.3-0.3,10.9-0.5c19.6-0.9,39.2-1.7,58.8-2.7c16.5-0.9,32.4-3.6,48-6.8
				c17.9-3.7,34.8-8.8,51.6-14c6.6-2,13.2-4,19.8-6.1c1.3-0.4,2.7-0.9,3.7-1.6c4.6-2.8,10.4-4.5,16.7-5.5c9.5-1.5,17.8-4.3,25.8-7.6
				c6.5-2.7,13.6-4.5,21.1-5.9c0,5.8,0,11.5,0,17.3c-2.1,0.3-4.2,0.6-6.2,1c-10.8,1.8-19.8,5.4-28.9,9.1
				c-20.9,8.5-42.3,16.5-67.1,20.8c-3,0.5-5.8,1.3-9,2.1c0.6,0.3,0.8,0.4,0.9,0.4c0.5,0.1,1,0.2,1.5,0.2c6.9,0.6,13,2.3,19.1,4.2
				c8.1,2.5,16.7,4.3,25.8,5.1c6,0.5,11.9,1.2,17.8,2.2c10.7,1.8,21.2,3.9,31.8,5.8c4.7,0.8,9.4,1.6,14.1,2.3
				C746.4-743,746.4-733.4,746.4-723.7z"/>
			<path d="M733.4-302c-3.4-1.2-6.8-2.6-10.4-3.7c-3.4-1-7.1-1.8-10.8-2.4c-14.1-2.3-25.3-7.1-34.2-13.7
				c-8.6-6.4-16.8-13.1-25.4-19.5c-3.8-2.8-7.7-5.6-11.9-8.2c-6.3-3.9-14.4-6.2-22.7-8.3c-3.2-0.8-6.5-1.7-9.7-2.5
				c-11-3-19.2-7.7-25-13.9c-3.7-3.9-7.2-7.9-11-11.8c-6.8-6.9-16.5-12.2-27.2-17c-4.5-2-8.9-4-13.4-6c-0.6-0.3-1.2-0.6-1.8-0.9
				c0.1-0.1,0.2-0.2,0.3-0.3c0.8,0.2,1.7,0.4,2.4,0.6c1.8,0.7,3.7,1.3,5.4,2.1c6.4,3,13.5,5.1,21.3,6.5c8.3,1.5,16.1,3.7,23.6,6.4
				c14.7,5.3,30.6,9.2,46.4,13.1c20.9,5.2,41.9,10.3,63.6,14.3c16.7,3.1,33.7,5.2,51,6.6c0.8,0.1,1.5,0,2.3,0c0,4.4,0,8.8,0,13.2
				c-3.2-0.2-6.4-0.4-9.6-0.5c-22.6-0.6-44-4.2-64.5-9.4c-11.7-3-22.6-7.1-33.9-10.6c-1-0.3-1.9-0.6-3.2-1c0.1,2.4,1.7,4.2,4.6,5.3
				c4.4,1.7,9,3.3,13.7,4.6c5.9,1.6,11.7,3.2,16.5,5.8c2.5,1.4,5.1,2.7,7.6,4.1c6.8,3.9,14.6,6.9,23.6,8.6c14.3,2.8,28.3,6,42,9.7
				c0.9,0.3,2,0.3,3.1,0.4c0,3.8,0,7.6,0,11.3c-3.4-0.8-6.6-2-10.2-2.4c-6.1-0.7-12.3-1.1-18.5-1.4c-7.3-0.4-13.9-1.5-18.8-4.9
				c-1.3-0.9-2.9-1.5-4.3-2.3c-0.2,0.1-0.4,0.2-0.5,0.3c0.6,0.6,1.1,1.2,1.8,1.8c4.2,3.4,9.4,6.1,15.5,8.4c7.7,2.8,15.5,5.7,23,8.7
				c3.8,1.5,6.8,3.5,8.7,6c0.7,1,1.6,1.9,2.4,2.9C741.4-302,737.4-302,733.4-302z"/>
			<path class="st2" d="M-160.4-841.6c4.2,3,8.4,6.1,12.7,9.1c2.3,1.6,4.7,3.2,7.2,4.8c4.1,2.7,9.4,4.2,15.5,4.1
				c14.8-0.1,27.1,3.5,38.6,8.4c6.4,2.7,12.5,5.7,18.9,8.4c9.8,4.2,20.9,7,31.7,10.1c14.8,4.2,29.3,8.7,44,13
				c11.2,3.3,22.8,6.2,35.4,7c8.1,0.5,16.4,0.3,24.6,0.1c12-0.3,23.9-0.9,35.9-1.5c10.6-0.5,21.3-1.1,31.8-2
				c10.3-0.9,20.3-0.2,30,1.7c15.8,3.1,29.5,8.1,39.3,16.2c1,0.9,1.9,1.8,2.8,2.7c-0.2,0.1-0.3,0.2-0.5,0.3
				c-1.4-0.4-2.8-0.8-4.2-1.2c-5.5-1.8-11-3.7-16.6-5.6c-7.8-2.6-16.1-3.8-25.1-4.1c-11.2-0.3-22.1,0.5-32.9,1.9
				c-12,1.6-24.3,2.3-36.6,2.3c-17.7,0.1-35.4,0.1-53-0.3c-11.6-0.3-23.2-1.4-34.8-2.2c-4-0.3-7.9-0.6-11.9-0.8
				c-7-0.4-12.7-2.2-17.6-5.1c-4.5-2.7-9.1-5.3-13.3-8.1c-5.8-3.9-13.1-5.6-21.7-5.9c-4-0.1-8-0.4-12-0.6c-4.4-0.2-8.2-1.3-11.5-2.9
				c-7.9-3.7-15.7-7.4-23.2-11.3c-9.5-5-19.8-9.2-32.1-11.3c-7.3-1.2-14.9-1.7-22.3-2.6c-5.3-0.7-10.5-1.6-15.8-2.4
				c0-7.4,0-14.9,0-22.4C-171.5-841.6-166-841.6-160.4-841.6z"/>
			<path d="M-177-595.8c4.6,0.9,9.1,1.9,13.7,2.7c9.3,1.6,18.7,3,27.8,4.8c10,1.9,19.1,4.9,27.9,8.3c11.8,4.6,24.5,7.8,38.4,9.4
				c21.6,2.5,40.2,8.6,57.5,16.3c10.4,4.7,21.4,9,32.5,13c13.7,5,28.7,8.2,44.6,9.8c1.4,0.1,2.7,0.2,4.1,0.3
				c1.3,0.1,2.7,0.1,4.1,0.3c-4.3,1.3-8.2,3.2-13.2,3.2c-15.8,0.1-31.5,0.2-47.3,0c-16.2-0.3-30.7-3.6-43.9-9
				c-9.5-3.9-19.1-7.7-29-11.2c-7.2-2.6-15.2-3.8-23.7-3.7c-6.1,0-11.5-1.1-16.2-3.5c-9.9-5-19.8-10.1-30.2-14.8
				c-11.4-5.2-24-9.4-37.8-12.1c-3-0.6-6.1-0.9-9.2-1.3C-177-587.6-177-591.7-177-595.8z"/>
			<path class="st2" d="M746.4-562.1c-4.5-1.7-8.9-3.5-13.4-5.2c-6.6-2.4-13.3-4.9-20.1-7.1c-12.9-4.2-22.8-10.3-31.7-17
				c-10.6-8-18.3-16.9-23.4-26.6c-7.8-14.8-22.9-26.8-41.8-37.3c-18-10-38.1-18.3-61.4-23.6c-0.3-0.1-0.7-0.2-1-0.3
				c0-0.1,0.1-0.3,0.1-0.4c6.8,0.6,13.7,1.1,20.5,1.9c4,0.4,7.4,1.8,10.1,3.6c4.7,3,10.6,4.7,17.3,5.9c18,3.3,35.3,7.6,51.1,13.7
				c16.2,6.2,27.5,14.4,33.2,25.3c2.4,4.7,5.5,9.2,8.8,13.7c1.9,2.6,4.6,5.1,7.5,7.4c3.9,3.2,9.3,5.5,16.1,6.4
				c6.4,0.8,11.8,2.6,16.7,5.2c3.7,1.9,7.6,3.6,11.4,5.4C746.4-581.5,746.4-571.8,746.4-562.1z"/>
			<path class="st2" d="M222.3-302c-2.3-0.6-4.6-1.2-6.8-1.9c-5.9-1.9-9.6-5-12.1-8.6c-1-1.4-2-2.7-2.7-4.1c-3-6.1-9.1-11-17.7-14.7
				c-11.5-4.9-23.1-9.8-35.2-14.3c-13.1-4.8-27.7-7.1-43-8.3c-4.3-0.3-8.6-1-12.6-1.9c-2.1-0.5-3.9-1.6-5.3-2.7
				c-1.4-1-0.8-1.5,1.4-1.6c9.3-0.6,18.6-0.4,27.8,0.3c21.7,1.8,42,5.9,61.1,12.2c9,3,16.6,7.1,24.2,11.2c8.8,4.7,18.4,8.5,30.2,9.8
				c8.4,1,17,1.7,25.5,2.2c15.7,1,31.5,1.6,47.3,2.5c19.7,1.1,37.2,5.2,51.9,13.1c3.5,1.9,7.3,3.7,10.9,5.6c0.5,0.2,0.7,0.6,1.1,0.9
				c-15.1,0-30.2,0-45.2,0c-0.2-0.3-0.3-0.7-0.7-0.8c-7.5-1.5-15-2.8-23-3c-8.8-0.2-17.5,0.2-26.1,1.4c-6.5,0.9-13,1.6-19.5,2.4
				C243.3-302,232.8-302,222.3-302z"/>
			<path class="st2" d="M432.4-302c-0.4-0.4-0.6-0.8-1.1-1.1c-25.6-12.7-54-22.6-86.3-28.2c-12.1-2.1-24.7-3.3-37.2-4.5
				c-28.5-2.7-56.5-6.4-83.1-13.3c-0.8-0.2-1.6-0.5-2.3-1c4.1,0.6,8.3,1.1,12.3,1.7c8.9,1.4,17.7,3,26.6,4.4
				c12.5,2,25.4,2.2,38.2,2.4c15.5,0.2,31.1,0.2,46.6,0.3c44,0.4,86.3,5.4,126.7,15.9c22,5.7,42.1,13.1,60.4,22.3
				c0.5,0.2,0.8,0.6,1.2,0.9c-9.7,0-19.4,0-29.1,0c1.4-0.8,0.1-1-0.7-1.3c-17.7-6.1-36.6-10-57.3-10.7c-3.3-0.1-6.7,0.1-10.7,0.1
				c1.1,0.9,1.6,1.3,2.2,1.8c4.8,3,9.6,5.9,14.4,8.9c0.5,0.3,0.9,0.8,1.3,1.2C447.2-302,439.8-302,432.4-302z"/>
			<path class="st2" d="M746.4-402.7c-0.9-0.2-1.9-0.4-2.7-0.7c-8.3-3-17-5.4-26.8-6.2c-3.8-0.3-7.6-0.5-11.5-0.7
				c-6.9-0.5-12.7-2.4-18.2-4.6c-14.5-5.9-25.6-13.5-34.2-22.5c-3.2-3.3-6.4-6.7-9.2-10.1c-3.5-4.3-8.3-7.9-14.1-11.2
				c-10.6-6-21.1-12-32.9-17.1c-7.5-3.3-15.5-6-24.3-7.8c-0.3-0.1-0.7-0.2-1-0.3c0.1-0.1,0.1-0.3,0.2-0.4c4,0.6,8.1,1,12.1,1.7
				c14.4,2.7,27,7.3,39.1,12.4c9.1,3.8,18.2,7.7,27.6,11.3c12.9,5.1,27.6,7.6,42.8,9c16.7,1.6,33.5,1.4,50.4,0.3
				c0.9-0.1,1.8-0.2,2.7-0.3c0,7.3,0,14.6,0,21.9c-0.9-0.2-1.8-0.2-2.6-0.5c-8.7-2.4-17.6-4.2-27-5.4c-7.9-1-15.8-2-24-1.2
				c-0.5,0.1-1,0.2-2.1,0.4c5.1,1.4,9.5,2.7,14.1,3.9c10.9,2.8,19.8,6.9,26.4,12.8c4,3.6,8.9,6.8,15.1,9.2
				C746.4-406.8,746.4-404.7,746.4-402.7z"/>
			<path class="st2" d="M44.1-302c-0.3-0.5-0.6-1-1-1.5c-4.6-4.3-10.7-7.6-18.6-9.8c-10.7-3-21.4-5.9-32.2-8.7
				c-15.4-4.1-30.2-8.7-43.5-14.8c-5.2-2.4-10.1-5-13.7-8.3c-1-0.9-1.6-1.9-2.4-2.8c0.2-0.1,0.3-0.1,0.5-0.2c1,0.4,2.1,0.9,3.1,1.3
				c18.3,8.3,39.1,13.2,61.6,16c14.7,1.8,29.6,2.8,44.6,3.2c18.3,0.5,36.6,0.9,54.9,1.4c11.5,0.3,22.8,1.3,33,4.7
				c3.2,1.1,6.3,2.4,9.2,3.8c8.4,4.3,16,9,22.2,14.4c0.5,0.4,0.7,0.9,1,1.3c-9.4,0-18.8,0-28.2,0c-3.6-3.1-8.5-5.4-14.3-7
				c-11.7-3.2-24.1-3.6-36.7-3.2c-3.2,0.1-3.7,0.6-2,2.2c1.2,1.1,2.5,2.3,4.1,3.2c2.3,1.3,4.8,2.5,7.2,3.7c0.5,0.3,1,0.6,1.4,1
				C77.7-302,60.9-302,44.1-302z"/>
			<path class="st2" d="M189.1-841.6c3.9,2.5,7.6,5.2,11.7,7.6c15.1,9,32.4,16.1,51.5,22c34.9,10.8,69.5,21.9,104.3,32.9
				c0.5,0.1,0.9,0.3,1.3,0.8c-3,0-6,0-9.1,0c-27.1-0.4-52.8-4.5-76.2-12.2c-21.2-7-43.2-13.1-64.7-19.7c-7.1-2.2-13.8-4.8-19.6-8
				c-3.8-2.1-8.3-3.2-13.6-3.5c-2.8-0.2-5.9-0.9-8.1-1.9c-10.8-4.9-19.9-10.8-26.4-18C156.5-841.6,172.8-841.6,189.1-841.6z"/>
			<path d="M746.4-752.6c-4.7-0.8-9.5-1.5-14.1-2.3c-10.6-1.9-21.2-4-31.8-5.8c-5.8-1-11.8-1.7-17.8-2.2c-9.2-0.8-17.7-2.5-25.8-5.1
				c-6-1.9-12.2-3.6-19.1-4.2c-0.5,0-1-0.1-1.5-0.2c-0.2,0-0.3-0.1-0.9-0.4c3.2-0.7,6-1.6,9-2.1c24.8-4.2,46.2-12.3,67.1-20.8
				c9-3.7,18.1-7.3,28.9-9.1c2.1-0.3,4.2-0.6,6.2-1c0,5.1,0,10.3,0,15.4c-0.7,0.1-1.4,0.3-2.2,0.4c-10.9,2.5-21.9,5-32.8,7.4
				c-6.3,1.4-12.7,2.7-19,4.1c-1.1,0.2-2.1,0.7-3.2,1.1c1.5,0,2.9-0.2,4.2-0.4c1.4-0.2,2.8-0.4,4.2-0.6c16.2-2.1,32.4-2.8,48.7-0.7
				C746.4-770.2,746.4-761.4,746.4-752.6z"/>
			<path class="st2" d="M518.7-841.6c3.7,2.2,7.4,4.3,11.1,6.5c2.7,1.6,5.6,3.2,8,5c1.5,1.1,2.4,2.6,3.6,4c-0.8,0.1-1,0.2-1.1,0.2
				c-10.7-2-21.7-1.7-32.7-1.9c-21.1-0.4-42.1-0.9-63.2-1.2c-16.8-0.2-33.5-0.3-50.3-0.3c-19.3,0-37.9-2.2-56.1-5.6
				c-8.9-1.7-17.5-3.8-26.2-5.8c-0.7-0.1-1.2-0.5-1.8-0.8c43.7,0,87.4,0,131.1,0c0.2,0.2,0.4,0.4,0.7,0.5c8.3,1.6,16.6,2.9,25.5,2.5
				c0.6,0,1.2-0.2,2.1-0.4c-0.8-0.6-1.3-1-1.7-1.4c-0.5-0.4-1.1-0.9-1.6-1.3C483.6-841.6,501.2-841.6,518.7-841.6z"/>
			<path d="M746.4-661.4c-14.5-12.6-33.6-22.2-55.9-29.8c-11.6-3.9-24.4-6.4-36.9-9c-13.1-2.8-26.1-5.7-37.7-10.2
				c-10.9-4.2-21-9-29.8-14.6c-5.6-3.6-10-7.9-14.9-11.9c0.2-0.1,0.4-0.2,0.6-0.3c0.6,0.3,1.3,0.5,1.9,0.8
				c11.2,5.3,23.9,9.2,36.9,12.6c4.5,1.2,9.7,1.6,14.7,2.1c8.8,1,17,3.1,25,5.4c11,3.3,21.9,6.7,33,9.9c7.7,2.2,15.7,4.1,23.6,6.1
				c12.5,3.2,23.1,8,32.2,13.9c2,1.3,4,2.6,6.1,3.9c0.4,0.2,1,0.4,1.4,0.5C746.4-675.1,746.4-668.2,746.4-661.4z"/>
			<path class="st2" d="M-177-485.8c6.7-0.2,12.5,1.2,17.6,3.6c7.7,3.6,12.9,8.4,17.4,13.5c6.1,6.9,11.7,14,18.6,20.6
				c6.3,6.1,14.1,11.8,21.1,17.7c7.6,6.3,14.9,12.6,19.2,20c0.2,0.4,0.4,0.8,0.8,1.4c-0.8-0.1-1.4-0.2-1.9-0.3
				c-8.9-1.9-15.7-5.4-21.4-9.7c-5.6-4.2-11-8.5-16.9-12.7c-6-4.3-13.1-7.9-22.4-9.6c-2.1-0.4-2.8-1.4-3.3-2.6
				c-1.5-3.7-4.3-7-8-10.1c-4.6-3.8-10.6-6.1-18.6-6.3c-0.8,0-1.5-0.1-2.3-0.2C-177-468.9-177-477.3-177-485.8z"/>
			<path class="st2" d="M-177-674.4c7,2.4,14.2,4.6,21,7.3c16.3,6.4,31.5,13.5,45.1,21.8c12.4,7.6,22.1,16.1,26.5,26.4
				c2.6,6,2.6,12.1,1,18.2c0,0.1-0.2,0.1-0.6,0.4c-0.3-1.1-0.6-2-0.9-2.9c-2.8-9.6-11.2-17.5-22.9-24.2
				c-13.3-7.7-28.8-13.2-46.7-16.5c-4.5-0.8-9-1.8-13.3-3c-3.3-0.9-6.2-2.3-9.2-3.5C-177-658.3-177-666.4-177-674.4z"/>
			<path class="st2" d="M-177-517.3c4.3,1,8.9,1.6,12.7,3c9.6,3.4,18.7,7.2,28.1,10.8c14.1,5.3,28.4,10.4,42.5,15.7
				c15.5,5.9,30.9,11.8,46,17.9c5.6,2.3,10.4,5.3,15.2,8.2c2.7,1.6,4.4,3.7,4.8,5.6c-3.8-1.6-7.6-3.6-12-5
				c-10.4-3.3-21.2-6.1-31.7-9.3c-8.3-2.5-16.5-5.1-24.4-7.8c-15.1-5.3-31.1-9.4-47-13.7c-10.7-2.9-21.5-5.7-32.3-8.6
				c-0.7-0.2-1.4-0.4-2-0.6C-177-506.5-177-511.9-177-517.3z"/>
			<path class="st2" d="M-177-755.8c6.5-0.4,13-0.4,19.2,1.1c12.1,2.9,21.8,7.8,31.1,13c7.3,4.1,14.4,8.4,22.1,12.2
				c6.4,3.2,13.6,5.8,20.5,8.7c1,0.4,2,0.8,3,1.2c-0.1,0.1-0.1,0.2-0.2,0.3c-2.2-0.4-4.4-0.8-6.5-1.3c-7.5-1.6-14.9-3.6-22.7-4.8
				c-6.6-1.1-13.6-1.5-20.4-2c-8.3-0.7-16.2-1.9-23.9-3.8c-7.3-1.8-14.8-3.4-22.2-5.2C-177-742.9-177-749.4-177-755.8z"/>
			<path class="st2" d="M-177-717c4.1,0.9,8.4,1.7,12.4,2.8c15.4,4.3,27.7,10.7,37.9,18.6c11.2,8.7,23,17.1,32.6,26.4
				c3.9,3.7,6.5,7.9,9.6,11.9c0.1,0.1,0.1,0.3,0.1,0.7c-3.2-3-6.1-5.8-9.4-8.5c-8-6.7-17-13-28.5-17.8c-9.7-4.1-20.4-6.3-32.5-6.2
				c-7.1,0.1-14.1,0.2-21.2,0.3c-0.4,0-0.8-0.1-1.1-0.1C-177-698.3-177-707.6-177-717z"/>
			<path class="st2" d="M-177-333.6c0.8,0.3,1.8,0.4,2.5,0.8c5.7,3.2,11.7,6.2,17,9.7c10.1,6.7,22.4,10.6,37.4,12.2
				c6.5,0.7,12.9,2,19.2,3.2c4.2,0.8,7.8,2.3,10.5,4.4c0.5,0.4,0.8,0.8,1.1,1.3c-11.9,0-23.7,0-35.6,0c-0.6-0.1-1.1-0.2-1.7-0.2
				c-3.7-0.1-7.5-0.2-11.3-0.3c-6.6-0.3-13.2-0.3-19.1-2.4c-6.7-2.4-13.4-4.9-20.1-7.3C-177-319.4-177-326.5-177-333.6z"/>
			<path class="st2" d="M746.4-330.4c-1-0.1-2.1-0.2-3.1-0.4c-13.7-3.7-27.7-6.9-42-9.7c-9.1-1.8-16.9-4.7-23.6-8.6
				c-2.4-1.4-5-2.8-7.6-4.1c-4.8-2.6-10.6-4.2-16.5-5.8c-4.8-1.3-9.4-2.9-13.7-4.6c-2.9-1.1-4.5-2.9-4.6-5.3c1.2,0.4,2.2,0.7,3.2,1
				c11.3,3.6,22.2,7.6,33.9,10.6c20.5,5.2,41.9,8.8,64.5,9.4c3.2,0.1,6.4,0.3,9.6,0.5C746.4-341.7,746.4-336,746.4-330.4z"/>
			<path class="st2" d="M-177-539.7c6.7-0.4,13.1,0.8,19.4,1.9c15.5,2.7,30.8,5.9,45,10.5c9.7,3.1,18.2,7.1,24.9,12.4
				c0.4,0.4,0.9,0.7,1.1,1.3c-0.4-0.1-0.8-0.3-1.2-0.4c-9.2-4.6-20.3-6.8-31.7-8.6c-7.5-1.1-15-2.4-22.6-3
				c-5.2-0.4-10.7,0.2-16.1,0.3c-6.3,0.2-12.6,0.3-18.9,0.5C-177-529.8-177-534.8-177-539.7z"/>
			<path d="M746.4-408.9c-6.2-2.4-11-5.6-15.1-9.2c-6.6-5.9-15.5-10-26.4-12.8c-4.6-1.2-9-2.5-14.1-3.9c1.1-0.2,1.6-0.3,2.1-0.4
				c8.2-0.8,16.1,0.2,24,1.2c9.4,1.1,18.3,3,27,5.4c0.8,0.2,1.7,0.3,2.6,0.5C746.4-421.6,746.4-415.2,746.4-408.9z"/>
			<path d="M454.6-302c-0.4-0.4-0.8-0.8-1.3-1.2c-4.8-3-9.6-5.9-14.4-8.9c-0.7-0.4-1.2-0.9-2.2-1.8c4-0.1,7.3-0.2,10.7-0.1
				c20.7,0.7,39.6,4.6,57.3,10.7c0.8,0.3,2.2,0.5,0.7,1.3C488.4-302,471.5-302,454.6-302z"/>
			<path class="st2" d="M-99.5-841.6c0.6,0.6,1,1.2,1.8,1.6c5.4,2.9,10.9,5.8,16.3,8.7c4.3,2.3,7.5,5.1,10.3,8.4
				c-2.8-0.9-4.9-1.7-7.2-2.3c-13.9-3.9-28-7.5-43.1-9.7c-7.7-1.1-14.5-3.4-20.9-6.1c-0.4-0.2-0.8-0.4-1.1-0.6
				C-128.7-841.6-114.1-841.6-99.5-841.6z"/>
			<path d="M94.4-302c-0.5-0.3-0.9-0.7-1.4-1c-2.4-1.3-5-2.4-7.2-3.7c-1.6-0.9-3-2.1-4.1-3.2c-1.7-1.6-1.2-2.1,2-2.2
				c12.6-0.5,25-0.1,36.7,3.2c5.8,1.6,10.7,3.8,14.3,7C121.2-302,107.8-302,94.4-302z"/>
			<path class="st2" d="M74.1-841.6c1.5,2.5,4.3,4.5,7.7,6.3c5,2.5,10.2,4.9,15.2,7.5c2,1,3.6,2.4,5.4,3.5c-0.2,0.1-0.4,0.3-0.5,0.4
				c-1.1-0.3-2.2-0.5-3.3-0.8c-6.2-2-12.5-4-18.7-6.2c-5.3-1.8-10.9-2.7-17.1-2.6c-13.3,0.1-13.5,0-23.6-5.1
				c-1.8-0.9-3.5-1.9-5.3-2.9C47.3-841.6,60.7-841.6,74.1-841.6z"/>
			<path class="st2" d="M745.4-302c-0.8-1-1.7-1.9-2.4-2.9c-1.9-2.5-5-4.5-8.7-6c-7.5-3-15.3-5.9-23-8.7c-6.1-2.2-11.3-5-15.5-8.4
				c-0.7-0.6-1.2-1.2-1.8-1.8c0.2-0.1,0.4-0.2,0.5-0.3c1.5,0.8,3.1,1.4,4.3,2.3c5,3.4,11.6,4.5,18.8,4.9c6.2,0.3,12.4,0.7,18.5,1.4
				c3.5,0.4,6.8,1.6,10.2,2.4c0,5.4,0,10.8,0,16.2C746.3-302.5,746.9-301.9,745.4-302z"/>
			<path class="st2" d="M262.5-841.6c1,2,1.5,4.2,3,6.1c1.4,1.7,4,3.2,6.1,4.7c2.3,1.7,4.6,3.4,6.9,5.1c0.6,0.5,0.9,1.1,1.6,1.9
				c-1.9-0.3-3.1-0.4-4.3-0.6c-15.3-2.7-28.2-7.9-39.8-14.1c-1.8-1-3.5-2-5.2-3C241.3-841.6,251.9-841.6,262.5-841.6z"/>
			<path class="st2" d="M746.4-779c-16.3-2.1-32.5-1.4-48.7,0.7c-1.4,0.2-2.8,0.4-4.2,0.6c-1.3,0.2-2.7,0.4-4.2,0.4
				c1-0.4,2-0.8,3.2-1.1c6.3-1.4,12.7-2.7,19-4.1c11-2.4,21.9-5,32.8-7.4c0.7-0.2,1.4-0.3,2.2-0.4
				C746.4-786.6,746.4-782.8,746.4-779z"/>
			<path d="M253.7-302c6.5-0.8,13-1.6,19.5-2.4c8.6-1.1,17.3-1.6,26.1-1.4c8,0.2,15.6,1.5,23,3c0.3,0.1,0.5,0.5,0.7,0.8
				C299.9-302,276.8-302,253.7-302z"/>
			<path d="M-177-312.3c6.7,2.4,13.4,4.9,20.1,7.3c5.9,2.1,12.5,2.1,19.1,2.4c3.7,0.1,7.5,0.2,11.3,0.3c0.6,0,1.1,0.2,1.7,0.2
				c-17.3,0-34.7,0-52.2,0C-177-305.4-177-308.9-177-312.3z"/>
			<path class="st2" d="M118-841.6c1.7,3.4,3.2,6.9,5.1,10.3c0.8,1.4,2.1,2.8,3.4,4.5c-0.8-0.4-1.3-0.6-1.7-0.8
				c-6.2-4.3-12.3-8.6-18.4-12.9c-0.4-0.3-0.6-0.7-0.9-1C109.7-841.6,113.8-841.6,118-841.6z"/>
			<path d="M466.1-841.6c0.5,0.4,1.1,0.9,1.6,1.3c0.5,0.4,1,0.8,1.7,1.4c-0.9,0.2-1.5,0.3-2.1,0.4c-8.8,0.4-17.2-0.9-25.5-2.5
				c-0.3-0.1-0.5-0.3-0.7-0.5C449.5-841.6,457.8-841.6,466.1-841.6z"/>
			<path class="st2" d="M597.7-442.1c-6.9-2.6-13.9-5.1-20.8-7.7c-20.4-7.6-41.5-14.5-63.1-21c-26.3-7.9-50.5-17.8-74.5-27.9
				c-18.8-7.9-37.8-15.6-58.5-21.8c-9.1-2.7-18.3-5.4-28.5-6.5c-6.1-0.7-12.3-1-18.5-1.4c-12-0.9-22.9-3.6-32.5-7.8
				c-16.7-7.3-33.2-14.7-49.8-22.1c-1.7-0.8-3.4-1.5-5.2-2.2c-8.5-3.1-14.5-7.6-20.5-12.1c-0.3-0.2-0.5-0.5-1-1.1
				c3.4,0.8,6.3,1.6,9.2,2.3c10.5,2.6,21.7,3.6,33,4.1c8.4,0.3,16.8,0.5,24.9,1.9c6,1,11.4,2.7,16.1,5.1c3.9,2,7.8,4,11.5,6
				c12.7,7,27.7,11.6,44.1,14.7c13.9,2.7,28,5.1,42,7.6c9.4,1.6,18.4,3.8,26.9,6.7c1,0.3,2,0.6,3.5,1c-0.4-0.6-0.6-0.9-0.8-1.1
				c-8-7.8-15.4-15.9-24.1-23.4c-9.6-8.3-20.3-16.1-31-24c-12.3-9-25.2-17.7-37.8-26.5c-12.1-8.4-26.1-15.4-42.6-20.8
				c-7.7-2.5-15-5.5-21.8-8.7c-9.2-4.3-14.8-10.3-20-16.3c-2.5-2.9-5-5.9-7.5-8.8c-5.7-6.9-14.6-12.2-24.3-17.1
				c-16.3-8.3-33.7-15.6-53.2-21.2c-16.3-4.7-33.4-8.2-51-10.8c-13.1-1.9-26.5-3.2-39.6-5c-6.1-0.8-12-1.9-17.9-3
				c-1.1-0.2-2.2-0.5-3.2-1.1c1.5,0,3-0.2,4.4-0.1c13.1,0.2,26.2,0.1,39.2,0.7c30.9,1.5,59.6,7,86.3,16.3
				c21.6,7.5,41.4,16.5,61,25.7c10.3,4.8,20.8,9.6,31.5,14.1c11,4.7,20.8,10.2,30.2,15.9c14.4,8.7,30.9,15.3,50,19.8
				c6.2,1.5,12.1,3.4,17.9,5.3c13.3,4.3,23.1,10.5,29,18.7c6.6,9.3,13.5,18.6,19.3,28.1c4.9,8,12.3,14.8,23.2,20.4
				c3.9,2,7.2,4.6,10.3,7c7.1,5.7,15.7,10.3,25.9,14c8.8,3.2,17.6,6.4,26.1,9.9c13.2,5.5,22.8,12.9,29.5,21.5
				c6,7.7,11.8,15.5,18.2,23.1c9,10.6,19.9,20.6,34.5,29c0.3,0.2,0.5,0.3,0.7,0.5C597.9-442.2,597.8-442.1,597.7-442.1z"/>
			<path class="st2" d="M-89.1-707.2c3.3,0.3,6.6,0.4,9.8,0.9c12.8,2,24,5.8,34.2,10.5c10.7,5,21,10.3,31.4,15.5
				c15,7.4,31.7,13.1,49.2,18.2c24,7,49.3,11.7,75.9,14.1c15.4,1.4,30.8,2.3,46.4,2.4c4,0,8-0.3,12-0.5c0.8,0,1.6-0.2,2.7-0.4
				c-0.5-0.7-0.8-1.4-1.2-1.9c-3.3-4.2-8.6-7.3-15.1-9.8c-8.4-3.2-17.8-5.2-26.9-7.6c-10-2.6-20.5-4.1-31.5-4.1
				c-13,0-25.4-1.9-37.9-3.6c-8.3-1.1-16.9-2.1-23.9-5.1c-5.9-2.5-11.2-5.5-16.2-8.5C8.2-694.3-0.9-702.4-7-711.7
				c-1-1.6-1.8-3.2-2.8-5.1c0.8,0.2,1.2,0.3,1.4,0.4c11,6.3,24.4,10.6,37.7,14.9c17.4,5.7,36.3,8.9,55.5,11.8
				c23.2,3.5,45.9,8.1,68.2,13.1c13.9,3.1,25.4,8.4,35.4,14.8c17.6,11.3,35.2,22.6,52.7,34c9.1,5.9,19.6,11,29.7,16.4
				c18.4,9.6,36.6,19.4,54.6,29.2c4.8,2.7,8.5,6,12.7,9c0.3,0.2,0.4,0.4,1,1c-4.4-1.7-8.1-3.2-12-4.7c-15.8-5.8-32.6-10.7-49.4-15.4
				c-20-5.6-40.1-11.1-60.1-16.8c-7.6-2.2-14.8-4.8-22.4-7c-13.4-3.8-27.7-6-42.3-7.2s-29.3-1.9-44-3.1c-13.4-1-26.8-2.1-40.1-3.6
				c-18.1-2.1-33.7-7.5-47.9-14.2c-22.9-10.9-43.6-23.1-62.1-36.6c-6.1-4.4-12.6-8.7-19.1-13c-7.7-5-16.6-9-26.9-12.1
				c-0.8-0.2-1.5-0.5-2.3-0.8C-89.2-706.8-89.1-707-89.1-707.2z"/>
			<path class="st2" d="M-131.3-472.5c3.4,0.6,6.6,1,9.5,1.7c5.6,1.4,11.2,2.8,16.4,4.5c15.2,5.2,31.5,8.5,48.4,11.3
				c26.9,4.3,53.8,8.8,80.6,13.5c19.1,3.4,37.7,7.7,55.1,13.5c10.4,3.5,20.6,7.2,29.7,11.8c9.6,4.9,15.6,11.1,20.6,17.8
				c2.8,3.7,5.6,7.5,8.7,11.2c6.5,7.8,16.9,13.3,30.1,17.2c7.9,2.3,15.4,5.1,22.9,7.8c4.9,1.8,8.2,4.5,10.6,7.5
				c0.3,0.3,0.5,0.7,0.7,1c0.1,0.2,0.1,0.3,0.1,0.5c-3.8,0.6-4.3,0.5-6-1.4c-5.3-6.2-14.2-9.9-24.7-12.5c-11.2-2.8-23-3.9-35-4.3
				c-13.8-0.4-27.7-0.3-41.5,0.8c-11.8,0.9-23.6,2-35.4,2.8c-20.3,1.5-40.5,1.7-60.3-2c-23.1-4.4-40.7-12.9-54.2-24.6
				c-8.1-7.1-14.8-14.6-20.3-22.5c-7.7-11-17.9-21.1-30.8-30.4c-7.2-5.2-13.4-10.7-17.9-16.9C-126-466.9-128.7-469.5-131.3-472.5z
				 M130.7-382c0.1-0.1,0.2-0.2,0.3-0.3c-0.8-0.3-1.5-0.7-2.3-1c-4.5-1.4-8.9-2.9-13.5-4.1c-20.9-5.4-42.4-10-63-15.8
				c-10.4-2.9-19.6-6.3-24.2-12.9c-0.4-0.5-1-1-1.4-1.5c-2.8-2.9-6.5-5.5-11.2-7.4c-16.1-6.7-33.7-11.4-52.9-14.1
				c-8.8-1.2-17.5-2.7-26.2-4.1c-1.2-0.2-2.4-0.5-3.6-0.7c0.5,0.6,1.2,1,2,1.3c9.1,3.7,15.2,8.9,19,14.9c2.7,4.3,5,8.7,7.4,13
				c2,3.7,4.2,7.3,8.2,10.5c7.5,6,17.9,9.6,29.4,12.3c12.5,2.9,25.6,4.7,38.8,6.2c9.5,1.1,19,2.2,28.8,1.6
				c7.7-0.5,15.4-1.1,23.1-1.8c13.7-1.3,26.8-0.7,39.1,3.3C129.1-382.3,129.9-382.2,130.7-382z"/>
			<path class="st2" d="M216.4-548c-3.8-1.3-7.3-2.4-10.3-3.6c-6-2.5-11.6-5.4-17.7-7.8c-13.3-5.3-27.9-9-44-10.1
				c-10.1-0.7-20.3-0.8-30.4-1c-9.9-0.2-19.8-0.3-29.8-0.3c-9.9,0-18.7-1.7-26.8-4.9c-4.6-1.8-9.4-3.6-13.8-5.7
				c-12.7-6-27.2-9.9-42.7-12.6c-9.2-1.6-18.4-3.3-28.1-3.6c-5.6-0.2-11.2,0.1-16.8,0.2c-5.1,0.1-10.1,0-14.8-1.3
				c0-0.2-0.1-0.3-0.1-0.3c5.1-4.6,6-10,6.8-15.2c0.8-5.9,1-11.9,1.5-17.8c0.4-5.3-1.6-10.3-5-15.1c-6.7-9.7-13.8-19.4-25-27.6
				c-6.9-5.1-15.1-9.6-22.9-14.2c-8.6-5.1-17.8-9.8-24.8-15.7c-1.7-1.4-3.6-2.8-5.5-4.2c-3.6-2.6-7.9-4.9-13.3-6.3
				c0.1-0.1,0.1-0.3,0.2-0.4c3.9,0.4,7.9,0.7,11.8,1.2c14.3,1.8,26,6.4,36.1,12.4c14.4,8.5,27.6,17.5,38.5,27.7
				c5.7,5.3,12.4,10.2,19.8,14.7c10.5,6.3,16.7,13.8,19.4,22.5c1.5,4.8,3.2,9.5,5.8,14.1c5,8.9,15.7,15.2,29,20.1
				c12.9,4.7,27.2,7.5,42,9.3c15.8,1.9,31.7,3.4,47.6,5.2c19.4,2.1,38.7,4.6,57.1,8.9c17.1,4.1,32.5,9.6,44.8,17.8
				c5.4,3.6,9.4,7.7,11.1,12.4C216.2-549.1,216.2-548.8,216.4-548z"/>
			<path class="st2" d="M-8.3-639c0.2,0.1,0.5,0.2,0.7,0.3c23.2,11,49.4,18,79,20.6c6.9,0.6,14,0.3,21,0.5c4.4,0.1,8.8,0.1,13.1,0.4
				c7.4,0.5,13.6,3,19.9,5.1c5.7,2,11.3,4,17.2,5.7c7.6,2.2,16.1,2.9,24.4,3.8c21.3,2.4,42.1,5.7,61.4,11.6c5.1,1.6,10,3.4,14.8,5.2
				c11.3,4.2,22.3,8.8,35.1,11.7c-0.9-0.1-1.8-0.1-2.7-0.2c-1-0.1-2-0.2-2.9-0.3c-6.1-1.2-12.5-2.1-18.2-3.7
				c-26.2-7.2-53.7-10.3-82.5-10.3c-4.3,0-8.6,0-12.9,0c-7.9,0-15.1-1.4-21.9-3.6c-9.1-3-18.3-5.9-27.6-8.7
				c-8.6-2.6-17.9-3.4-27.5-3.1c-6.7,0.3-13.4,0.5-20,0.7c-15.7,0.6-29.3-2.5-41.3-8.2c-7.4-3.5-14.9-7.2-19.1-12.3
				c-4-4.8-7-9.9-10.4-14.9C-8.7-638.9-8.5-638.9-8.3-639z"/>
			<path d="M561.7-320.8c-1.4-0.5-2.8-0.9-4.1-1.4c-11.4-4.5-23.5-8.2-36.9-10.2c-9.7-1.4-19.3-3-28.9-4.5
				c-15.1-2.4-29.2-6.2-42.8-10.5c-25.6-8.1-51.7-15.4-78.7-21.8c-13.2-3.1-25.6-7.1-37-12c-16.1-7-34-11.6-53.1-14.9
				c-11.2-2-22.5-3.2-34.1-3.8c-7.7-0.4-15.2-1.4-21.1-4.8c-3.9-2.2-6.3-5-8.7-7.7c-3.4-3.9-6.8-7.9-10.3-11.7
				c-5.9-6.5-14.3-11.4-25.6-14.6c-11.9-3.4-23.6-7-35.3-10.5c-8.4-2.5-17.5-3.8-26.6-5.2c-14.8-2.3-29.5-4.7-44.2-7
				c-5.9-0.9-11.8-1.7-17.7-2.5c-7.5-1.1-14.5-3-20.8-5.6c-5.2-2.1-10.3-4.2-15.4-6.4c-0.7-0.3-1.3-0.8-2-1.1
				c0.1-0.1,0.2-0.2,0.3-0.3c0.5,0,1.1,0.1,1.6,0.1c21.9,2.9,44,5,66.5,5.8c28.8,1,57.5,2.7,85.7,6.4c20.1,2.7,39.2,6.9,57.1,13
				c11.2,3.9,20.2,9,26.7,15.7c4.2,4.2,8.5,8.4,13,12.6c7.7,7.1,18.3,11.9,32.4,14c10,1.5,19,4,27.1,7.7c6.2,2.8,13.3,4.7,20.9,5.8
				c7.7,1.2,14.6,3.2,21.4,5.6c4.8,1.7,9.8,3.3,14.9,4.5c11.9,2.8,22.3,7.1,32.9,11.1c18.7,7.1,37.4,14,55.9,21.2
				c7.7,3,15.1,6.4,22.4,9.7c11.1,5,23.4,8.5,36.2,11.7c7,1.7,13.6,4,20.2,6.2c2.4,0.8,4.6,2,6.6,3.1c1,0.6,1.5,1.5,2.2,2.3
				C562.2-321,562-320.9,561.7-320.8z"/>
			<path d="M130.7-382c-0.7-0.2-1.5-0.3-2.2-0.5c-12.3-4-25.5-4.6-39.1-3.3c-7.7,0.7-15.4,1.3-23.1,1.8c-9.8,0.6-19.3-0.6-28.8-1.6
				c-13.2-1.5-26.3-3.3-38.8-6.2c-11.5-2.7-21.9-6.3-29.4-12.3c-4-3.2-6.2-6.8-8.2-10.5c-2.4-4.4-4.7-8.7-7.4-13
				c-3.8-6-9.8-11.2-19-14.9c-0.8-0.3-1.5-0.8-2-1.3c1.2,0.3,2.3,0.6,3.6,0.7c8.7,1.4,17.4,2.8,26.2,4.1
				c19.2,2.7,36.8,7.4,52.9,14.1c4.7,2,8.4,4.5,11.2,7.4c0.5,0.5,1.1,1,1.4,1.5c4.6,6.5,13.8,9.9,24.2,12.9
				c20.6,5.8,42.1,10.4,63,15.8c4.6,1.2,9,2.7,13.5,4.1c0.8,0.3,1.5,0.6,2.3,1C130.9-382.2,130.8-382.1,130.7-382z"/>
		</g>
	</g>
</g>
<g class="st0">
	<polygon class="st1" points="85.4,-120.3 -22.9,487.1 35.1,487.1 139.3,-120.3 	"/>
	<g class="st1">
		<path d="M165-123.9C157.3,85.7,74.4,286.4,50.7,473.6c21.5,3.2,42.9,6.4,64.4,9.6c17.3-194,95.9-400.3,97.8-614.3
			C196.9-128.7,180.9-126.3,165-123.9z"/>
	</g>
	<g class="st1">
		<path d="M251.4-123.9c1.9,209.6-100.1,410.3-114.2,597.5c21.5,3.2,42.9,6.4,64.4,9.6c7.4-194,105.8-400.3,97.8-614.3
			C283.3-128.7,267.3-126.3,251.4-123.9z"/>
	</g>
	<g class="st1">
		<path d="M338.5-130.1c37.2,209.6-135.2,410.3-114.2,597.5c21.5,3.2,42.9,6.4,64.4,9.6c-28.7-194,142-400.3,97.8-614.3
			C370.5-134.9,354.5-132.5,338.5-130.1z"/>
	</g>
	<g class="st1">
		<path d="M440.4-123.9C480.8,85.7,302,286.4,326.1,473.6c21.5,3.2,42.9,6.4,64.4,9.6c-32-194,145.3-400.3,97.8-614.3
			C472.4-128.7,456.4-126.3,440.4-123.9z"/>
	</g>
	<g class="st1">
		<path d="M518.8-123.9c39,104.8-5.9,207.4-51.1,307.2C422.1,283,376.1,380,404.6,473.6c21.5,3.2,42.9,6.4,64.4,9.6
			c-32.9-97,11-197.1,54.6-299.7C566.9,81,609.8-24.1,566.8-131.1C550.8-128.7,534.8-126.3,518.8-123.9z"/>
	</g>
	<g class="st1">
		<path d="M603-123.9c48.8,104.8-1.1,207.4-51.1,307.2c-50.4,99.8-101,196.8-63.1,290.3c21.5,3.2,42.9,6.4,64.4,9.6
			c-42.6-97,6-197.1,54.6-299.7C655.9,81,704-24.1,651-131.1C635-128.7,619-126.3,603-123.9z"/>
	</g>
	<g class="st1">
		<path d="M699.6-123.9c63.6,104.8,6.1,207.4-51.1,307.2c-57.7,99.8-115,196.8-63.2,290.3c21.5,3.2,42.9,6.4,64.4,9.6
			c-57.1-97-1.4-197.1,54.6-299.7C759.9,81,815.8-24.1,747.6-131.1C731.6-128.7,715.6-126.3,699.6-123.9z"/>
	</g>
	<g class="st1">
		<path d="M786.3-123.9c81.6,104.8,14.8,207.4-51.1,307.2C668.7,283,603.1,380,672.1,473.6c21.5,3.2,42.9,6.4,64.4,9.6
			c-74.7-97-10.5-197.1,54.6-299.7C855.6,81,921-24.1,834.3-131.1C818.3-128.7,802.3-126.3,786.3-123.9z"/>
	</g>
	<g class="st1">
		<path d="M867.4-123.9c106.2,104.8,26.8,207.4-51,307.2C737.8,283,660.8,380,753.2,473.6c21.5,3.2,42.9,6.4,64.4,9.6
			c-98.9-97-22.9-197.1,54.6-299.7C948.9,81,1027.3-24.1,915.4-131.1C899.4-128.7,883.4-126.3,867.4-123.9z"/>
	</g>
	<g class="st1">
		<path d="M958.8-123.9c130.7,104.8,38.7,207.4-51,307.2c-90.7,99.7-179,196.7-63.2,290.3c21.5,3.2,42.9,6.4,64.4,9.6
			c-123-97-35.4-197.1,54.6-299.7c89-102.6,180.3-207.7,43.2-314.6C990.8-128.7,974.8-126.3,958.8-123.9z"/>
	</g>
	<g class="st1">
		<path d="M1059.1-123.9c148.8,104.8,47.5,207.4-51,307.2C908.5,283,811.8,380,944.8,473.6c21.5,3.2,42.9,6.4,64.4,9.6
			c-140.7-97-44.5-197.1,54.6-299.7c98-102.6,198.8-207.7,43.3-314.6C1091-128.7,1075-126.3,1059.1-123.9z"/>
	</g>
</g>
<path class="st3" d="M202.6,231.3c-11.7-0.1-23.4-0.2-35-0.3c-35.8,26.6-61.5,52.9-67.4,78.7c-17-0.3-34-0.7-51-1
	C63.7,224.4,304,135,393.8,48.9c24.2-0.8,48.2-1.7,71.9-2.5c17.3-0.6,26.5,5.3,24.3,18c-2.2,9.8-10.8,22.4-28.7,37.9
	c-6.1,5.2-13.1,10.7-21.1,16.5c-19.8,14.1-41.4,28.3-63.4,42.3c-32.4,20.7-65.2,37.7-96.9,50.8C248.2,225,223.2,231.4,202.6,231.3z
	 M391,104.1c-8.1,0.1-16.2,0.3-24.3,0.4c-34.1,23.1-73.8,46.3-111.9,69.4c8.6,0,17.2,0,25.9,0c15.8,0,38.5-9,67.4-27.1
	c8.1-5.1,16-10.1,23.8-15.2c3.5-2.2,7.9-5.2,13-8.9c5.1-3.7,9.2-7.8,12.3-12.2C400.3,106.1,398.1,104,391,104.1z M332.3,314.2
	c5.6-19.1,20.2-38.5,40.3-58.1c-16.4-0.2-32.8-0.4-49.2-0.6C299.3,275,281,294.1,272.2,313c-18.2-0.4-36.4-0.7-54.6-1.1
	c19.8-43.1,92.1-87.5,167.4-132.6c75-45.1,153-90.8,176.7-136.5c24.9-0.9,49.4-1.8,73.7-2.8c-2.8,92.9-224.6,186.6-248.4,275.2
	C368.7,314.9,350.5,314.6,332.3,314.2z M539.7,108.9c-40.8,32.4-95.7,64.7-145.2,96.6c12.9,0,25.7,0.1,38.6,0.1
	c42.5-32.1,89.8-64.5,123.6-97C551,108.7,545.3,108.8,539.7,108.9z M802.2,33.5c30.4,49.3-17.6,98-75.4,145.7
	C668.3,227,600,273.7,575.3,319c-17.5-0.3-35.1-0.7-52.6-1c6.5-49.5,64.8-100.6,112.3-152c-66.2,51.4-145.2,102-168.5,150.8
	c-17.4-0.3-34.9-0.7-52.3-1c20-44.4,87.3-90,151.2-136.5c63.5-46.5,123.5-93.7,119.2-141.1c13.4-0.5,26.7-1,40-1.6
	c26.5,48.6-10.8,97.4-54.3,145.8c61.6-48.3,116.2-97.5,94.3-147.4C777.3,34.6,789.8,34.1,802.2,33.5z M868,30.8
	c46.8,50.4,6.3,100-47.8,148.4c-54.9,48.4-123.6,95.7-150.9,141.6c-17.6-0.3-35.2-0.7-52.8-1c25.9-45.6,94.4-92.5,151.4-140.5
	c56.3-48,101.1-97.2,63.6-146.9C843.7,31.8,855.9,31.3,868,30.8z M782,328.6c-27.7-0.6-44.4-8.9-44.4-25.2
	c0.3-11.5,9.6-27.6,30.7-48.4c9-9,20-18.6,32.6-29c36.9-30.6,75.2-61.8,97.9-93.4C951,63.1,906.6,26,943.7,24.3
	c14.2-0.7,38.3,6,63.7,20c25,14,46.4,33.5,48.2,58c0.9,11.4-2.3,22.7-8.8,33.8c-6.6,11.2-13.9,19.3-19.4,24.7
	c-2.9,2.8-5.9,5.6-9,8.4c-16.9,0-33.8,0.1-50.7,0.1c14.4-10.5,28.7-25.5,35.4-45.1c3.4-10.4,2.4-18.6-0.8-24.6
	c-3.3-6-8.6-9-14.7-8.8C970.3,91,965.2,107,944,138c-19.4,27.9-50.9,55.5-82.8,82.7c-8.3,7-16,13.8-22.9,20.5
	c-18.3,17.6-18.4,26.4-2.7,26.6c18.9,0.2,43.7-13.8,77.4-42.7c17.8,0.1,35.7,0.2,53.6,0.3c-4.4,4-8.9,7.9-13.3,11.8
	C878.8,300.5,835.9,329.6,782,328.6z"/>
<g>
	<defs>
		<path id="SVGID_1_" d="M202.6,231.3c-11.7-0.1-23.4-0.2-35-0.3c-35.8,26.6-61.5,52.9-67.4,78.7c-17-0.3-34-0.7-51-1
			C63.7,224.4,304,135,393.8,48.9c24.2-0.8,48.2-1.7,71.9-2.5c17.3-0.6,26.5,5.3,24.3,18c-2.2,9.8-10.8,22.4-28.7,37.9
			c-6.1,5.2-13.1,10.7-21.1,16.5c-19.8,14.1-41.4,28.3-63.4,42.3c-32.4,20.7-65.2,37.7-96.9,50.8C248.2,225,223.2,231.4,202.6,231.3
			z M391,104.1c-8.1,0.1-16.2,0.3-24.3,0.4c-34.1,23.1-73.8,46.3-111.9,69.4c8.6,0,17.2,0,25.9,0c15.8,0,38.5-9,67.4-27.1
			c8.1-5.1,16-10.1,23.8-15.2c3.5-2.2,7.9-5.2,13-8.9c5.1-3.7,9.2-7.8,12.3-12.2C400.3,106.1,398.1,104,391,104.1z M332.3,314.2
			c5.6-19.1,20.2-38.5,40.3-58.1c-16.4-0.2-32.8-0.4-49.2-0.6C299.3,275,281,294.1,272.2,313c-18.2-0.4-36.4-0.7-54.6-1.1
			c19.8-43.1,92.1-87.5,167.4-132.6c75-45.1,153-90.8,176.7-136.5c24.9-0.9,49.4-1.8,73.7-2.8c-2.8,92.9-224.6,186.6-248.4,275.2
			C368.7,314.9,350.5,314.6,332.3,314.2z M539.7,108.9c-40.8,32.4-95.7,64.7-145.2,96.6c12.9,0,25.7,0.1,38.6,0.1
			c42.5-32.1,89.8-64.5,123.6-97C551,108.7,545.3,108.8,539.7,108.9z M802.2,33.5c30.4,49.3-17.6,98-75.4,145.7
			C668.3,227,600,273.7,575.3,319c-17.5-0.3-35.1-0.7-52.6-1c6.5-49.5,64.8-100.6,112.3-152c-66.2,51.4-145.2,102-168.5,150.8
			c-17.4-0.3-34.9-0.7-52.3-1c20-44.4,87.3-90,151.2-136.5c63.5-46.5,123.5-93.7,119.2-141.1c13.4-0.5,26.7-1,40-1.6
			c26.5,48.6-10.8,97.4-54.3,145.8c61.6-48.3,116.2-97.5,94.3-147.4C777.3,34.6,789.8,34.1,802.2,33.5z M868,30.8
			c46.8,50.4,6.3,100-47.8,148.4c-54.9,48.4-123.6,95.7-150.9,141.6c-17.6-0.3-35.2-0.7-52.8-1c25.9-45.6,94.4-92.5,151.4-140.5
			c56.3-48,101.1-97.2,63.6-146.9C843.7,31.8,855.9,31.3,868,30.8z M782,328.6c-27.7-0.6-44.4-8.9-44.4-25.2
			c0.3-11.5,9.6-27.6,30.7-48.4c9-9,20-18.6,32.6-29c36.9-30.6,75.2-61.8,97.9-93.4C951,63.1,906.6,26,943.7,24.3
			c14.2-0.7,38.3,6,63.7,20c25,14,46.4,33.5,48.2,58c0.9,11.4-2.3,22.7-8.8,33.8c-6.6,11.2-13.9,19.3-19.4,24.7
			c-2.9,2.8-5.9,5.6-9,8.4c-16.9,0-33.8,0.1-50.7,0.1c14.4-10.5,28.7-25.5,35.4-45.1c3.4-10.4,2.4-18.6-0.8-24.6
			c-3.3-6-8.6-9-14.7-8.8C970.3,91,965.2,107,944,138c-19.4,27.9-50.9,55.5-82.8,82.7c-8.3,7-16,13.8-22.9,20.5
			c-18.3,17.6-18.4,26.4-2.7,26.6c18.9,0.2,43.7-13.8,77.4-42.7c17.8,0.1,35.7,0.2,53.6,0.3c-4.4,4-8.9,7.9-13.3,11.8
			C878.8,300.5,835.9,329.6,782,328.6z"/>
	</defs>
	<clipPath id="SVGID_00000091727436677897807460000009886146463222490528_">
		<use xlink:href="#SVGID_1_"  style="overflow:visible;"/>
	</clipPath>
	<g style="clip-path:url(#SVGID_00000091727436677897807460000009886146463222490528_);">
		<path class="st2" d="M59.1,175.6C824.7,221.3-1795,1188.7-1048.1,1207.1c12.2-3,24.4-6,36.6-9.1
			C-1772.2,1182.7,840.3,216.9,63.6,174.2C62.1,174.7,60.6,175.1,59.1,175.6z"/>
		<path class="st2" d="M41.5,184.5c765.6,45.7-1854.1,1013.2-1107.3,1031.6c12.2-3,24.4-6,36.6-9.1
			C-1789.9,1191.6,822.6,225.8,46,183.2C44.5,183.6,43,184.1,41.5,184.5z"/>
		<path class="st2" d="M21.9,194.7c765.6,45.7-1854.1,1013.2-1107.3,1031.6c12.2-3,24.4-6,36.6-9.1
			C-1809.5,1201.8,803,236,26.3,193.3C24.9,193.8,23.4,194.2,21.9,194.7z"/>
		<path class="st2" d="M0.3,205.4C765.9,251.2-1853.8,1218.6-1106.9,1237c12.2-3,24.4-6,36.6-9.1
			C-1831,1212.5,781.5,246.7,4.8,204.1C3.3,204.5,1.8,205,0.3,205.4z"/>
		<path class="st2" d="M-10.6,216.1C755,261.9-1864.7,1229.3-1117.8,1247.7c12.2-3,24.4-6,36.6-9.1
			C-1842,1223.2,770.5,257.4-6.1,214.8C-7.6,215.2-9.1,215.7-10.6,216.1z"/>
		<path class="st2" d="M-21,228.6c765.6,45.7-1854.1,1013.2-1107.3,1031.6c12.2-3,24.4-6,36.6-9.1
			C-1852.4,1235.7,760.1,269.9-16.5,227.2C-18,227.7-19.5,228.1-21,228.6z"/>
		<path class="st2" d="M-31,241.5c765.6,45.7-1854.1,1013.2-1107.3,1031.6c12.2-3,24.4-6,36.6-9.1
			C-1862.4,1248.6,750.1,282.8-26.5,240.1C-28,240.6-29.5,241-31,241.5z"/>
		<path class="st2" d="M-40.3,258.6c765.6,45.7-1854.1,1013.2-1107.3,1031.6c12.2-3,24.4-6,36.6-9.1
			C-1871.7,1265.7,740.8,299.9-35.9,257.3C-37.4,257.7-38.9,258.2-40.3,258.6z"/>
		<path class="st2" d="M-51.3,275.1c765.6,45.7-1854.1,1013.2-1107.3,1031.6c12.2-3,24.4-6,36.6-9.1
			C-1882.6,1282.2,729.9,316.4-46.8,273.7C-48.3,274.2-49.8,274.6-51.3,275.1z"/>
		<path class="st2" d="M-56.3,289c765.6,45.7-1854.1,1013.2-1107.3,1031.6c12.2-3,24.4-6,36.6-9.1
			C-1887.7,1296.1,724.8,330.3-51.9,287.7C-53.4,288.1-54.8,288.6-56.3,289z"/>
		<path class="st2" d="M68.6,172.7C857.3,212-1748.7,1176.4-976.2,1189.3c12.2-3,24.4-6,36.6-9.1C-1726,1170.4,872.8,207.6,73,171.3
			C71.5,171.8,70.1,172.2,68.6,172.7z"/>
		<path class="st2" d="M78,169.8c811.8,32.9-1780.4,994.3-982.4,1001.6c12.2-3,24.4-6,36.6-9.1c-811.9-4.3,1773.2-964.1,950.3-993.9
			C81,168.9,79.5,169.4,78,169.8z"/>
		<path class="st2" d="M87.4,167c834.9,26.5-1743.6,984.8-919.9,986.7c12.2-3,24.4-6,36.6-9.1c-837.5,1.2,1733.9-955.5,887.8-978.9
			C90.4,166.1,88.9,166.5,87.4,167z"/>
		<path class="st2" d="M96.9,164.1c858.1,20.1-1706.8,975.4-857.5,971.7c12.2-3,24.4-6,36.6-9.1c-863.1,6.7,1694.6-947,825.4-964
			C99.8,163.2,98.4,163.7,96.9,164.1z"/>
		<path class="st2" d="M106.3,161.2c881.2,13.7-1669.9,966-795.1,956.7c12.2-3,24.4-6,36.6-9.1c-888.7,12.2,1655.2-938.4,762.9-949
			C109.3,160.3,107.8,160.8,106.3,161.2z"/>
		<path class="st2" d="M115.7,158.4c904.3,7.2-1633.1,956.5-732.6,941.8c12.2-3,24.4-6,36.6-9.1c-914.3,17.8,1615.9-929.9,700.5-934
			C118.7,157.5,117.2,157.9,115.7,158.4z"/>
		<path class="st2" d="M125.2,155.5c927.4,0.8-1596.2,947.1-670.2,926.8c12.2-3,24.4-6,36.6-9.1
			c-939.9,23.3,1576.6-921.3,638.1-919.1C128.1,154.6,126.7,155.1,125.2,155.5z"/>
		<path class="st2" d="M134.6,152.6c950.6-5.6-1559.4,937.6-607.7,911.8c12.2-3,24.4-6,36.6-9.1
			c-965.5,28.8,1537.3-912.8,575.6-904.1C137.6,151.7,136.1,152.2,134.6,152.6z"/>
		<path class="st2" d="M144,149.8c973.7-12-1522.6,928.2-545.3,896.9c12.2-3,24.4-6,36.6-9.1c-991.1,34.4,1498-904.2,513.2-889.2
			C147,148.9,145.5,149.3,144,149.8z"/>
		<path class="st2" d="M153.5,146.9c996.8-18.4-1485.7,918.8-482.9,881.9c12.2-3,24.4-6,36.6-9.1
			c-1016.7,39.9,1458.7-895.7,450.7-874.2"/>
		<path class="st2" d="M162.9,144c1019.9-24.8-1448.9,909.4-420.4,867c12.2-3,24.4-6,36.6-9.1
			c-1042.3,45.4,1419.4-887.1,388.3-859.2"/>
		<path class="st2" d="M172.3,141.2c1043.1-31.2-1412.1,899.9-358,852c12.2-3,24.4-6,36.6-9.1C-1217,1035,1231,105.5,176.8,139.8"/>
		<path class="st2" d="M181.8,138.3c1066.2-37.7-1375.2,890.5-295.5,837c12.2-3,24.4-6,36.6-9.1
			c-1093.5,56.5,1340.7-870,263.4-829.3"/>
		<path class="st2" d="M191.2,135.5c1089.3-44.1-1338.4,881-233.1,822c12.2-3,24.4-6,36.6-9.1c-1119.1,62,1301.4-861.5,201-814.3"/>
		<path class="st2" d="M200.6,132.6C1313.1,82.1-1100.9,1004.2,30,939.7c12.2-3,24.4-6,36.6-9.1
			c-1144.7,67.5,1262.1-852.9,138.5-799.4"/>
		<path class="st2" d="M210.1,129.7c1135.6-56.9-1264.7,862.1-108.2,792.1c12.2-3,24.4-6,36.6-9.1
			c-1170.3,73,1222.8-844.4,76.1-784.4"/>
		<path class="st2" d="M219.5,126.9C1378.2,63.5-1008.4,979.6,173.7,904c12.2-3,24.4-6,36.6-9.1C-985.6,973.5,1393.8,59.1,224,125.5
			"/>
		<path class="st2" d="M228.9,124c1181.8-69.7-1191,843.3,16.7,762.2c12.2-3,24.4-6,36.6-9.1c-1221.5,84.1,1144.1-827.3-48.8-754.5"
			/>
		<path class="st2" d="M238.4,121.1C1443.3,45-915.8,955,317.5,868.3c12.2-3,24.4-6,36.6-9.1C-893.1,948.9,1458.9,40.5,242.8,119.8"
			/>
		<path class="st2" d="M210.7,121c1298.4-102-1047,804.9,142.2,732.1c12.1-3,24.1-6,36.2-9C-813.8,919.9,1524.4,14.6,214.8,119.7
			C213.4,120.2,212.1,120.6,210.7,121z"/>
		<path class="st2" d="M219.4,118.3C1541.2,9.8-790.5,913.7,424,835.4c12.1-3,24.1-6,36.2-9C-768,907.7,1556.5,5.4,223.6,117.1
			C222.2,117.5,220.8,117.9,219.4,118.3z"/>
		<path class="st2" d="M228.2,115.6c1345.1-115-973,785.9,267,702.1c12.1-3,24.1-6,36.2-9c-1253.6,86.8,1057.2-812.5-299-694.4
			C230.9,114.8,229.6,115.2,228.2,115.6z"/>
		<path class="st2" d="M236.9,113C1605.3-8.5-699,889.3,566.3,800.1c12.1-3,24.1-6,36.2-9c-1279,92.2,1018.2-804-361.4-679.4
			C239.7,112.1,238.3,112.5,236.9,113z"/>
		<path class="st2" d="M245.7,110.3c1391.7-128-899,766.8,391.7,672.1c12.1-3,24.1-6,36.2-9C-630.8,871.1,1652.7-22.1,249.8,109
			C248.4,109.4,247.1,109.9,245.7,110.3z"/>
		<path class="st2" d="M254.4,107.6c1415-134.5-861.9,757.3,454.1,657.1c12.1-3,24.1-6,36.2-9C-585,858.9,1684.8-31.2,258.6,106.4
			C257.2,106.8,255.8,107.2,254.4,107.6z"/>
		<path class="st2" d="M263.2,104.9C1701.5-36-561.8,852.8,779.6,747.1c12.1-3,24.1-6,36.2-9c-1355.1,108.7,901-778.4-548.5-634.4
			C266,104.1,264.6,104.5,263.2,104.9z"/>
		<path class="st2" d="M271.9,102.3C1733.6-45.2-516,840.6,850.8,729.4c12.1-3,24.1-6,36.2-9C-493.5,834.6,1748.9-49.5,276.1,101
			C274.7,101.4,273.3,101.8,271.9,102.3z"/>
		<path class="st2" d="M280.7,99.6C1765.6-54.3-470.2,828.4,921.9,711.7c12.1-3,24.1-6,36.2-9C-447.8,822.4,1781-58.7,284.8,98.3
			C283.5,98.7,282.1,99.2,280.7,99.6z"/>
		<path class="st2" d="M289.4,96.9C1797.7-63.5-424.5,816.2,993,694c12.1-3,24.1-6,36.2-9C-402,810.2,1813-67.8,293.6,95.6
			C292.2,96.1,290.8,96.5,289.4,96.9z"/>
		<path class="st2" d="M298.2,94.2C1829.8-72.6-378.7,804,1064.1,676.4c12.1-3,24.1-6,36.2-9C-356.3,798,1845.1-77,302.3,93"/>
		<path class="st2" d="M307,91.6c1554.8-173.4-640,700.2,828.3,567.1c12.1-3,24.1-6,36.2-9c-1482,136.1,705.7-735.9-860.4-559.4"/>
		<path class="st2" d="M315.7,88.9C1893.9-90.9-287.2,779.6,1206.4,641c12.1-3,24.1-6,36.2-9C-264.7,773.6,1909.2-95.3,319.8,87.6"
			/>
		<path class="st2" d="M324.5,86.2C1926-100.1-241.4,767.4,1277.6,623.4c12.1-3,24.1-6,36.2-9C-219,761.4,1941.3-104.5,328.6,84.9"
			/>
		<path class="st2" d="M333.2,83.5C1958-109.3-195.7,755.2,1348.7,605.7c12.1-3,24.1-6,36.2-9C-173.2,749.2,1973.3-113.6,337.3,82.3
			"/>
		<path class="st2" d="M342,80.9C1990.1-118.4-150,743,1419.8,588c12.1-3,24.1-6,36.2-9C-127.5,737,2005.4-122.8,346.1,79.6"/>
		<path class="st2" d="M350.7,78.2c1671.4-205.8-454.9,652.7,1140.2,492.2c12.1-3,24.1-6,36.2-9C-81.7,724.8,2037.5-132,354.9,76.9"
			/>
		<path class="st2" d="M359.5,75.5C2054.2-136.7-58.5,718.7,1562,552.7c12.1-3,24.1-6,36.2-9C-36,712.6,2069.5-141.1,363.6,74.2"/>
		<path class="st2" d="M368.2,72.8C2086.3-145.9-12.7,706.5,1633.2,535c12.1-3,24.1-6,36.2-9C9.8,700.5,2101.6-150.3,372.4,71.6"/>
		<path class="st2" d="M377,70.1C2118.3-155.1,33,694.3,1704.3,517.3c12.1-3,24.1-6,36.2-9c-1685,180,393.1-667.7-1359.4-439.4"/>
	</g>
</g>
<g class="st0">
	<path class="st5" d="M139.3,222.2h-39l-12.8,71.7H28.6L70.2,58.1h99.9c24.7,0,42.2,5.7,52.7,17c7.6,8.7,11.5,19.9,11.5,33.4
		c0,4.6-0.4,9.4-1.3,14.4l-6.5,37c-3.3,18.1-12.9,33-28.8,44.7C181.6,216.3,162.2,222.2,139.3,222.2z M149.4,109.2H120l-10.8,61.9
		h29.1c17.9,0,28.3-8,31.1-23.9l2.3-13.4c0.4-2,0.7-4.6,0.7-7.9s-1.6-6.9-4.9-10.8C164.2,111.2,158.2,109.2,149.4,109.2z"/>
	<g class="st1">
		<path class="st2" d="M318.4,295.7c-6.7-17.4-8.9-34.8-8.6-52.2c-19.3-0.6-38.6-1.1-57.9-1.7c-6.1,16.8-10,33.5-9.8,50.1
			c-23.1-1.1-46.3-2.3-69.4-3.4c8.1-73.5,100.6-150.5,96.2-230c32.1-1.6,64.1-3.1,96.2-4.7c39.5,81.2-17.4,162.9,22.5,245.1
			C364.4,298,341.4,296.9,318.4,295.7z M308.8,115c-8.8,28.1-24.2,56-37.9,83.6c14.6,0.2,29.1,0.3,43.7,0.5
			c5.2-28.2,12.5-56.3,13.7-84.5C321.8,114.7,315.3,114.8,308.8,115z"/>
	</g>
	<g class="st1">
		<path class="st2" d="M627.2,49c78.9,81.8-94.2,163-21.2,243.2c-21.9-0.9-43.9-1.9-65.8-2.8c-59.8-43.8-45.2-86.9-36.6-129.5
			c-29.8,42.6-66.8,84.7-33.9,126.5c-21.9-0.9-43.9-1.9-65.8-2.8c-54-74.3,122-150.5,61.6-227.9c18.1-0.8,36.1-1.5,54.2-2.3
			c52.7,39.5,44.4,79.6,38.3,120.2c26.6-40.6,54.2-81.5,16.8-122.5C592.2,50.5,609.7,49.8,627.2,49z"/>
	</g>
	<g class="st1">
		<path class="st2" d="M751,53.9c133.4,82.4-161.9,163.1-34.7,240.9c-21.9-2.1-43.9-4.1-65.8-6.2c-116-73.5,170.8-150.5,48.1-229.8
			C716.1,57.2,733.5,55.6,751,53.9z"/>
	</g>
	<g class="st1">
		<path class="st2" d="M863.3,297.2c-33.6-1.7-87.3-9.5-126.3-23c-27-9.6-45.2-22.6-35.6-39.1c4-7.1,12.8-14.7,26.2-22.9
			C767,188.2,832,164,870,139.7c90.3-53.4-21.8-82.1,38.1-84.9c21.6-1.1,63.3,3.5,103.1,14.2c39.3,10.6,67.5,25.7,59.6,45.2
			c-3.5,9.1-13.6,18.1-28,27.1c-14.5,9-28.3,15.6-37.9,19.9c-5,2.3-10.2,4.5-15.4,6.8c-19.2,0-38.5,0.1-57.7,0.1
			c22-8.4,48.2-20.4,65.6-35.9c8.9-8.2,10.5-14.6,7.9-19.3c-2.7-4.7-9.1-6.9-16.9-6.7c-22.5,0.6-28.2,13.1-67.5,37.3
			c-35.6,21.9-89.9,43.6-126.6,65.3c-9.6,5.6-17.2,11-22.6,16.4c-13.7,14.1-1.9,21.5,15.2,22.1c22.6,0.7,28.3-10.7,64.4-34.2
			c19.7,0.3,39.5,0.6,59.2,1c-4.9,3.3-9.3,6.5-13.2,9.8c-34.2,26.2-21.4,45.6-12.6,57.8C894.2,293.8,899.5,298.9,863.3,297.2z"/>
	</g>
</g>
<g class="st0">
	<g class="st1">
		<path d="M553.8-353.9C1056.5-182-871.2-20.1-376,130.2c8.7,0.2,17.4,0.5,26.1,0.7C-854.9-20,1067.7-182.1,557-354
			C556-354,554.9-354,553.8-353.9z"/>
		<path d="M560.6-354.1c519.3,172-1398.7,334.3-885.4,485.7c8.7,0.2,17.4,0.5,26.1,0.7C-821.8-19.6,1091.1-182.2,563.9-354.2
			C562.8-354.2,561.7-354.1,560.6-354.1z"/>
		<path d="M567.5-354.3c535.9,172-1372.3,334.9-840.9,487.2c8.7,0.2,17.4,0.5,26.1,0.7c-541.2-152.9,1361.9-316,818-488
			C569.6-354.3,568.5-354.3,567.5-354.3z"/>
		<path d="M574.3-354.5c552.5,171.9-1346,335.4-796.5,488.7c8.7,0.2,17.4,0.5,26.1,0.7C-755.4-18.9,1138-182.6,577.5-354.5
			C576.4-354.5,575.4-354.5,574.3-354.5z"/>
		<path d="M581.1-354.6c569.1,171.9-1319.7,335.9-752,490.3c8.7,0.2,17.4,0.5,26.1,0.7c-577.5-155,1306.3-319.1,729.1-491.1
			C583.3-354.7,582.2-354.7,581.1-354.6z"/>
		<path d="M587.9-354.8C1173.7-182.9-705.4-18.4-119.6,137c8.7,0.2,17.4,0.5,26.1,0.7C-689.1-18.3,1184.9-183,591.2-354.9
			C590.1-354.9,589-354.8,587.9-354.8z"/>
		<path d="M594.8-355c602.4,171.9-1267,336.9-663.1,493.4c8.7,0.2,17.4,0.5,26.1,0.7C-655.9-17.9,1208.4-183.1,598-355.1
			C596.9-355,595.8-355,594.8-355z"/>
		<path d="M601.6-355.1C1220.6-183.2-639.1-17.7-17,139.8c8.7,0.2,17.4,0.5,26.1,0.7C-622.8-17.6,1231.8-183.3,604.8-355.2
			C603.7-355.2,602.7-355.2,601.6-355.1z"/>
		<path d="M608.4-355.3C1244.1-183.4-605.9-17.4,34.2,141.2c8.7,0.2,17.4,0.5,26.1,0.7c-649.9-159.1,1195-325.4,551.3-497.3
			C610.6-355.4,609.5-355.3,608.4-355.3z"/>
		<path d="M615.2-355.5c652.3,171.9-1188,338.4-529.7,498c8.7,0.2,17.4,0.5,26.1,0.7C-556.4-17,1278.7-183.7,618.5-355.6
			C617.4-355.5,616.3-355.5,615.2-355.5z"/>
		<path d="M622.1-355.7C1291-183.8-539.6-16.8,136.8,143.9c8.7,0.2,17.4,0.5,26.1,0.7C-523.3-16.6,1302.2-183.9,625.3-355.7"/>
		<path d="M628.9-355.8C1314.4-184-506.4-16.4,188,145.3c8.7,0.2,17.4,0.5,26.1,0.7c-704.3-162.3,1111.5-330,418-501.9"/>
		<path d="M635.7-356c702.1,171.9-1109,339.9-396.4,502.7c8.7,0.2,17.4,0.5,26.1,0.7C-457-15.9,1349.1-184.2,638.9-356.1"/>
		<path d="M642.5-356.2C1361.3-184.3-440.1-15.8,290.6,148c8.7,0.2,17.4,0.5,26.1,0.7c-740.5-164.3,1055.8-333.1,329.1-505"/>
		<path d="M649.4-356.3C1384.8-184.5-406.9-15.4,341.9,149.4c8.7,0.2,17.4,0.5,26.1,0.7C-390.6-15.3,1396-184.6,652.6-356.4"/>
		<path d="M656.2-356.5c752,171.8-1030,341.4-263,507.3c8.7,0.2,17.4,0.5,26.1,0.7C-357.5-14.9,1419.4-184.8,659.4-356.6"/>
		<path d="M663-356.7C1431.7-184.9-340.6-14.8,444.4,152.2c8.7,0.2,17.4,0.5,26.1,0.7c-794.8-167.5,972.3-337.8,195.7-509.6"/>
		<path d="M669.8-356.8C1455.1-185-307.4-14.4,495.7,153.5c8.7,0.2,17.4,0.5,26.1,0.7C-291.1-14.3,1466.3-185.2,673.1-357"/>
		<path d="M676.7-357c801.9,171.8-951,342.9-129.7,511.9c8.7,0.2,17.4,0.5,26.1,0.7c-831-169.5,916.7-340.9,106.8-512.7"/>
		<path d="M683.5-357.2C1502-185.4-241.1-13.7,598.3,156.3c8.7,0.2,17.4,0.5,26.1,0.7c-849.2-170.6,888.9-342.5,62.4-514.2"/>
		<path d="M665-362.4c885.7,171.8-847.7,343.9-40.3,515c8.6,0.2,17.2,0.5,25.8,0.7c-817.1-171.6,911.2-344,17.5-515.8
			C667-362.4,666-362.4,665-362.4z"/>
		<path d="M671.4-362.6c902.5,171.7-821.2,344.4,4.1,516.5c8.6,0.2,17.2,0.5,25.8,0.7c-835-172.7,883.6-345.6-26.9-517.3
			C673.4-362.6,672.4-362.6,671.4-362.6z"/>
		<path d="M677.7-362.7C1597-191-117-17.8,726.2,155.3c8.6,0.2,17.2,0.5,25.8,0.7c-853-173.7,855.9-347.1-71.3-518.8
			C679.7-362.8,678.7-362.7,677.7-362.7z"/>
		<path d="M684.1-362.9c936,171.7-768.3,345.4,92.9,519.6c8.6,0.2,17.2,0.5,25.8,0.7C-68.1-17.4,1631.1-191.3,687.1-363
			C686.1-362.9,685.1-362.9,684.1-362.9z"/>
		<path d="M690.4-363.1C1643.2-191.4-51.4-17.2,827.7,158c8.6,0.2,17.2,0.5,25.8,0.7C-35.3-17,1654.2-191.5,693.4-363.1
			C692.4-363.1,691.4-363.1,690.4-363.1z"/>
		<path d="M696.7-363.2C1666.3-191.6-18.6-16.9,878.5,159.4c8.6,0.2,17.2,0.5,25.8,0.7c-906.8-176.8,773-351.7-204.6-523.4
			C698.7-363.3,697.7-363.3,696.7-363.2z"/>
		<path d="M703.1-363.4C1689.4-191.8,14.2-16.6,929.2,160.7c8.6,0.2,17.2,0.5,25.8,0.7C30.2-16.4,1700.3-191.8,706-363.5
			C705.1-363.5,704.1-363.4,703.1-363.4z"/>
		<path d="M709.4-363.6C1712.4-191.9,47-16.2,980,162c8.6,0.2,17.2,0.5,25.8,0.7C63.1-16.1,1723.5-192,712.4-363.7
			C711.4-363.6,710.4-363.6,709.4-363.6z"/>
		<path d="M715.8-363.7c1019.8,171.6-636,347.8,315,527.1c8.6,0.2,17.2,0.5,25.8,0.7c-960.7-179.9,690-356.3-337.8-527.9
			C717.7-363.8,716.7-363.8,715.8-363.7z"/>
		<path d="M722.1-363.9c1036.6,171.6-609.5,348.3,359.4,528.6c8.6,0.2,17.2,0.5,25.8,0.7C128.7-15.5,1769.7-192.4,725.1-364
			C724.1-364,723.1-363.9,722.1-363.9z"/>
		<path d="M728.4-364.1c1053.3,171.6-583.1,348.8,403.8,530.2c8.6,0.2,17.2,0.5,25.8,0.7c-996.5-182,634.8-359.4-426.6-531"/>
		<path d="M734.8-364.2C1804.8-192.7,178.2-15,1183,167.4c8.6,0.2,17.2,0.5,25.8,0.7c-1014.5-182.9,607.1-360.9-471-532.4"/>
		<path d="M741.1-364.4C1827.9-192.9,211-14.7,1233.7,168.8c8.6,0.2,17.2,0.5,25.8,0.7C227.1-14.5,1839-193,744.1-364.5"/>
		<path d="M747.4-364.6c1103.6,171.5-503.7,350.2,537,534.7c8.6,0.2,17.2,0.5,25.8,0.7c-1050.4-185,551.8-364-559.9-535.5"/>
		<path d="M753.8-364.8C1874.1-193.3,276.6-14,1335.2,171.5c8.6,0.2,17.2,0.5,25.8,0.7c-1068.4-186,524.1-365.5-604.3-537"/>
		<path d="M760.1-364.9C1897.2-193.5,309.4-13.7,1386,172.8c8.6,0.2,17.2,0.5,25.8,0.7C325.5-13.6,1908.3-193.6,763.1-365"/>
		<path d="M766.5-365.1c1153.9,171.4-424.3,351.7,670.3,539.2c8.6,0.2,17.2,0.5,25.8,0.7c-1104.3-188.1,468.8-368.6-693.1-540"/>
		<path d="M772.8-365.3C1943.4-193.9,375-13.1,1487.5,175.5c8.6,0.2,17.2,0.5,25.8,0.7C391.1-13,1954.5-193.9,775.8-365.3"/>
		<path d="M779.1-365.4C1966.5-194,407.7-12.8,1538.2,176.8c8.6,0.2,17.2,0.5,25.8,0.7c-1140.2-190.2,413.5-371.6-781.9-543"/>
		<path d="M785.5-365.6c1204.1,171.4-345,353.1,803.5,543.8c8.6,0.2,17.2,0.5,25.8,0.7C456.7-12.3,2000.7-194.3,788.5-365.7"/>
	</g>
</g>
</svg>
