<?xml version="1.0" encoding="utf-8"?>
<!-- Generator: Adobe Illustrator 26.1.0, SVG Export Plug-In . SVG Version: 6.00 Build 0)  -->
<svg version="1.1" id="Layer_1" xmlns="http://www.w3.org/2000/svg" xmlns:xlink="http://www.w3.org/1999/xlink" x="0px" y="0px"
	 viewBox="0 0 351.9 352" style="enable-background:new 0 0 351.9 352;" xml:space="preserve">
<style type="text/css">
	.st0{fill:#FFFFFF;}
</style>
<g>
	<g>
		<path class="st0" d="M14.8,352c-4.9,0-9.9,0-14.8,0C0,234.7,0,117.3,0,0c4.9,0,9.9,0,14.8,0c-0.5,38.2,2.7,69.2,10.6,99.3
			c7.9,29.6,20.6,58.4,38.3,81.6c35.8,47.4,79.9,55.8,101.7,49.7c23.5-6,31.8-17.3,37-25.8c4.8-8.9,5.7-15.6,6.4-19.7
			c0.7-7.3,3.9-12.2,11,6c1,9.7,9.3,29-21.6,69.2c-13.9,19.5-47.8,42-86.5,57.8C73.9,334.4,31.1,344.1,14.8,352z"/>
		<path class="st0" d="M45.5,352c-4.9,0-9.9,0-14.8,0c39.4-9.2,122.1-36.3,156.9-73c37.5-36,39.5-64.9,38.7-80.6
			c-4.8-31.9-17.7-34.6-22.3-38.4c-5.7-2.5-8-1.6-9.1-0.9c-0.9,0.9-0.7,2.1,1.3,4.7c1.7,4.8,12.4,12.5,5,35.2
			c-5.2,9.6-14.3,29.1-52.3,29.5c-18.7-0.4-46.8-10.3-73.3-42.2c-13.3-15.6-25.1-37.7-33.9-65.7C33,91.9,27.3,57.4,30.6,0
			c4.9,0,9.9,0,14.8,0c-6.9,63.4-1.7,95.2,4.7,120.5c6.8,24.3,14.8,42.1,23.8,55.1c17.8,26.1,35.9,38.7,51,44.6
			c30.3,11.2,47.6,3.8,57.9-2.4c19.9-14.3,19.7-28.2,19-36c-3.3-16.3-12.2-18.8-15.7-21.6c-3.6-2-5.5-4.8,3.2-6.5
			c4.8,0.8,12.9-2.6,28.1,14.5c5.4,9.5,19.1,25.1,4.8,66.3c-7.5,19.8-27.4,47.2-63.1,70.3C124.4,328.3,76.2,344.3,45.5,352z"/>
		<path class="st0" d="M76.1,352c-4.9,0-9.9,0-14.8,0c46.6-11.3,110.3-43.5,137.5-76.7c29.6-33.3,32.3-60.8,31.3-76.9
			c-4.4-33.3-19.6-38.7-26.7-43.7c-16.9-6.7-21.5-1.1-25.1-0.1c-5.4,4.5-2.3,5.2,1.2,6.2c4,1.2,10.9,1.6,18,12.5
			c2.4,5.6,6.9,15.4-2.7,30.7c-5.3,7-13.8,17.4-37.2,19.6c-11.8,0.5-28.1-1.1-50.1-17.3c-11-8.4-23.1-21-35-44.3
			C66.4,150.4,61.3,135,57,112.9C53.3,90,50.5,60.4,61.3,0c4.9,0,9.9,0,14.8,0c-18.4,81.7-12,113-6.3,137
			c6.9,22.3,13.1,37.3,21.3,46.8c15,19.6,27.7,28,38.7,32.4c21.6,8.3,34.2,5.6,43.3,2.5c17.5-7.1,21.8-16.9,24.5-23.5
			c4.6-13.8-0.9-21.1-4-25.2c-8.2-7.6-14.2-6.9-18-7c-3.5-0.3-6.6,0.1-3.8-5.2c2.6-2,4.5-7.5,19.3-7.6c6.9,1.9,19.5,1.1,33.1,23.3
			c4.9,11.4,14.3,29.9,0,66.2c-7.3,17.3-22.4,40.1-49.2,61.2C149,322,111.2,341.5,76.1,352z"/>
		<path class="st0" d="M106.8,352c-4.9,0-9.9,0-14.8,0c55.2-20.6,95.1-53.3,115.8-80.5c21.6-27.8,24.1-50,25.4-65.2
			c-0.4-31.2-13.4-40.4-20.1-48.2c-16.8-12.5-25.8-8.4-32.1-8c-11.7,4.3-11.9,9.1-13.3,11.7c-0.5,5.3,2.4,4,5.7,3.7
			c3.6-0.8,8.8-2.1,17.3,3c3.2,3,9.2,8.6,7.2,20.6c-1.3,5.9-3.3,14.7-16.6,23.6c-7.1,4.3-16.9,8.4-36.5,5.3
			c-10.4-1.5-22.1-7.1-38.5-22.6c-7.7-8.9-17.5-19.4-24.6-42.3c-3.7-11.5-7.2-26-7.8-48.3C73.5,82.1,76,51.6,91.9,0
			c4.9,0,9.9,0,14.8,0C82.5,61.5,80.8,92.9,81.3,116.1c1.3,22.4,4.7,36.6,9.4,47.4c8.9,21.1,18.4,30.7,26.4,37.8
			c15.8,13.6,27.9,14.7,36.6,15.9c17.4,0.1,25.4-4,31-8.9c10.4-9.3,11.8-16.5,12.2-22.1c0.2-10.9-4.7-15.3-8.3-17.7
			c-8.1-4.2-13.1-1.5-16.2-0.6c-3.2,0.8-5.9,2.7-7.1-2.2c0.4-2.9-0.3-6.7,8.5-13.4c5.5-2.2,11.6-7.1,28.6-1.5
			c7.8,4.8,19.7,8.5,28.7,32.7c2.3,13,8,29.4-4.3,59.5C214.3,271.9,183.7,314.6,106.8,352z"/>
		<path class="st0" d="M137.4,352c-4.9,0-9.9,0-14.8,0c44.8-24.9,73.5-53.4,90-76.9c16.7-23.9,21.3-42.8,23.4-57.2
			c2.7-28.8-5.8-41.4-11.5-50.8c-13.3-17.1-24.2-18.2-31.8-19.7c-15.1-0.8-20.5,4.7-24.1,7.9c-6.1,7.2-5,11.8-4.3,14
			c2.7,4.3,5.1,2,8.1,0.7c2.8-1.2,7.3-4.3,15-1c3.5,1.9,8.1,5.7,8.4,15.6c-0.1,5.2-1.1,11.7-10,20.8c-5,3.9-11.9,9.8-28,9.8
			c-8.2-0.5-19.1-1.4-34.9-13.1c-7.9-6.3-16.9-15-25.9-35.1c-4.7-10.3-8-23.9-9-46.3C88.2,97.3,90.5,65.2,122.6,0
			c4.9,0,9.9,0,14.8,0C99.1,64.5,95.1,97.4,93.9,120.8c0.1,22.8,3,36.3,7.5,46.5c8.6,19.9,17.3,28.1,25,34.2
			c15.2,11.1,25.6,11.7,33.3,12c15.1-0.3,21.4-6,26.1-9.7c8.1-8.7,9.1-14.6,8.9-19.6c-0.6-9.2-5.1-12.5-8.1-14.2
			c-6.4-3.2-10.7-0.2-13.7,1.9c-2.9,2.2-6,4.6-8.8,0.2c-1.1-2.2-3-6.1,1-13.8c2.6-3.7,5.8-9,18.5-11.9c6.8-0.5,15.8-2.1,31.2,8.5
			c7.2,6.5,17.1,14.1,22.6,38.4c1.7,12.7,3.6,28.8-6.7,55.4C220,274.7,197.2,311.3,137.4,352z"/>
		<path class="st0" d="M168,352c-4.9,0-9.9,0-14.8,0c69.9-59.6,82.1-99.1,87.1-125c3.1-26.2-1-38.9-5.7-49.8
			c-10.2-19.6-19.5-24.6-27.6-28.7c-15.8-6.2-23.3-3.5-29.5-1.6c-11.1,5-13.2,10.4-15,14.4c-2.4,8,0.2,11.6,1.8,13.6
			c3.7,3.9,6.9,1.2,9.7-1.2c2.9-2.4,6.7-5.5,12.5-2.3c2.7,1.7,6.8,4.8,7.1,13.5c-0.1,4.7-1.1,10.3-9.2,18.4
			c-4.6,3.4-11,8.7-25.8,8.4c-7.5-0.7-17.7-1.7-32.2-13.5c-7.2-6.5-15.6-15.1-22.6-35.8c-3.5-10.8-5.8-24.6-3.5-47.8
			c3.4-23.6,11.2-56.7,53-114.5c4.9,0,9.9,0,14.8,0c-41.7,48.6-54.1,80.8-60.2,104.2c-5.4,23.3-4.5,37.9-2.4,49.6
			c4.6,22.4,12.7,32.2,19.1,39.5c13.1,13.5,23.7,15.2,31.2,16.6c15.2,0.7,21.3-2.4,26.4-6.3c8.7-7.4,9.9-12.8,10.4-17.3
			c0.3-8.5-3.3-11.6-5.8-13.3c-5.1-3.2-8.7-0.2-11.5,2.3c-2.8,2.5-6.1,5.4-10.5,1.9c-2-1.8-5.1-5.2-3.9-13.4
			c1.1-4.3,2.7-9.6,12.4-16c5.7-3,12.2-6,27.8-3c8.6,2.2,17,6,29.9,21.8c7.2,9.1,11.1,19.9,13.6,44.2C244.1,235.7,242.2,274,168,352
			z"/>
		<path class="st0" d="M198.7,352c-4.9,0-9.9,0-14.8,0c41.7-48.6,54.1-80.8,60.2-104.2c5.4-23.3,4.5-37.9,2.4-49.6
			c-4.6-22.4-12.7-32.2-19.1-39.5c-13.1-13.5-23.7-15.2-31.2-16.6c-15.2-0.7-21.3,2.4-26.4,6.3c-8.7,7.4-9.9,12.8-10.4,17.3
			c-0.3,8.5,3.3,11.6,5.8,13.3c5.1,3.2,8.7,0.2,11.5-2.3c2.8-2.5,6.1-5.4,10.5-1.9c2,1.8,5.1,5.2,3.9,13.4c-1.1,4.3-2.7,9.6-12.4,16
			c-5.7,3-12.2,6-27.8,3c-8.6-2.2-17-6-29.9-21.8c-7.2-9.1-11.1-19.9-13.6-44.2c0.5-24.9,2.3-63.2,76.5-141.2c4.9,0,9.9,0,14.8,0
			c-69.9,59.6-82.1,99.1-87.1,125c-3.1,26.2,1,38.9,5.7,49.8c10.2,19.6,19.5,24.6,27.6,28.7c15.8,6.2,23.3,3.5,29.5,1.6
			c11.1-5,13.2-10.4,15-14.4c2.4-8-0.2-11.6-1.8-13.6c-3.7-3.9-6.9-1.2-9.7,1.2c-2.9,2.4-6.7,5.5-12.5,2.3
			c-2.7-1.7-6.8-4.8-7.1-13.5c0.1-4.7,1.1-10.3,9.2-18.4c4.6-3.4,11-8.7,25.8-8.4c7.5,0.7,17.7,1.7,32.2,13.5
			c7.2,6.5,15.6,15.1,22.6,35.8c3.5,10.8,5.8,24.6,3.5,47.8C248.3,261.1,240.4,294.3,198.7,352z"/>
		<path class="st0" d="M229.3,352c-4.9,0-9.9,0-14.8,0c38.3-64.5,42.3-97.4,43.5-120.8c-0.1-22.8-3-36.3-7.5-46.5
			c-8.6-19.9-17.3-28.1-25-34.2c-15.2-11.1-25.6-11.7-33.3-12c-15.1,0.3-21.4,6-26.1,9.7c-8.1,8.7-9.1,14.6-8.9,19.6
			c0.6,9.2,5.1,12.5,8.1,14.2c6.4,3.2,10.7,0.2,13.7-1.9c2.9-2.2,6-4.6,8.8-0.2c1.1,2.2,3,6.1-1,13.8c-2.6,3.7-5.8,9-18.5,11.9
			c-6.8,0.5-15.8,2.1-31.2-8.5c-7.2-6.5-17.1-14.1-22.6-38.4c-1.7-12.7-3.6-28.8,6.7-55.4C131.9,77.3,154.7,40.7,214.5,0
			c4.9,0,9.9,0,14.8,0c-44.8,24.9-73.5,53.4-90,76.9c-16.7,23.9-21.3,42.8-23.4,57.2c-2.7,28.8,5.8,41.4,11.5,50.8
			c13.3,17.1,24.2,18.2,31.8,19.7c15.1,0.8,20.5-4.7,24.1-7.9c6.1-7.2,5-11.8,4.3-14c-2.7-4.3-5.1-2-8.1-0.7c-2.8,1.2-7.3,4.3-15,1
			c-3.5-1.9-8.1-5.7-8.4-15.6c0.1-5.2,1.1-11.7,10-20.8c5-3.9,11.9-9.8,28-9.8c8.2,0.5,19.1,1.4,34.9,13.1
			c7.9,6.3,16.9,15,25.9,35.1c4.7,10.3,8,23.9,9,46.3C263.7,254.7,261.4,286.8,229.3,352z"/>
		<path class="st0" d="M260,352c-4.9,0-9.9,0-14.8,0c24.3-61.5,25.9-92.9,25.4-116.1c-1.3-22.4-4.7-36.6-9.4-47.4
			c-8.9-21.1-18.4-30.7-26.4-37.8c-15.8-13.6-27.9-14.7-36.6-15.9c-17.4-0.1-25.4,4-31,8.9c-10.4,9.3-11.8,16.5-12.2,22.1
			c-0.2,10.9,4.7,15.3,8.3,17.7c8.1,4.2,13.1,1.5,16.2,0.6c3.2-0.8,5.9-2.7,7.1,2.2c-0.4,2.9,0.3,6.7-8.5,13.4
			c-5.5,2.2-11.6,7.1-28.6,1.5c-7.8-4.8-19.7-8.5-28.7-32.7c-2.3-13-8-29.4,4.3-59.5c12.6-29,43.1-71.7,120.1-109.1
			c4.9,0,9.9,0,14.8,0c-55.2,20.6-95.1,53.3-115.8,80.5c-21.6,27.8-24.1,50-25.4,65.2c0.4,31.2,13.4,40.4,20.1,48.2
			c16.8,12.5,25.8,8.4,32.1,8c11.7-4.3,11.9-9.1,13.3-11.7c0.5-5.3-2.4-4-5.7-3.7c-3.6,0.8-8.8,2.1-17.3-3c-3.2-3-9.2-8.6-7.2-20.6
			c1.3-5.9,3.3-14.7,16.6-23.6c7.1-4.3,16.9-8.4,36.5-5.3c10.4,1.5,22.1,7.1,38.5,22.6c7.7,8.9,17.5,19.4,24.6,42.3
			c3.7,11.5,7.2,26,7.8,48.3C278.4,269.9,275.9,300.4,260,352z"/>
		<path class="st0" d="M290.6,352c-4.9,0-9.9,0-14.8,0c18.4-81.7,12-113,6.3-137c-6.9-22.3-13.1-37.3-21.3-46.8
			c-15-19.6-27.7-28-38.7-32.4c-21.6-8.3-34.2-5.6-43.3-2.5c-17.5,7.1-21.8,16.9-24.5,23.5c-4.6,13.8,0.9,21.1,4,25.2
			c8.2,7.6,14.2,6.9,18,7c3.5,0.3,6.6-0.1,3.8,5.2c-2.6,2-4.5,7.5-19.3,7.6c-6.9-1.9-19.5-1.1-33.1-23.3c-4.9-11.4-14.3-29.9,0-66.2
			c7.3-17.3,22.4-40.1,49.2-61.2c26-21.1,63.8-40.7,98.9-51.1c4.9,0,9.9,0,14.8,0C244,11.3,180.3,43.5,153.1,76.7
			c-29.6,33.3-32.3,60.8-31.3,76.9c4.4,33.3,19.6,38.7,26.7,43.7c16.9,6.7,21.5,1.1,25.1,0.1c5.4-4.5,2.3-5.2-1.2-6.2
			c-4-1.2-10.9-1.6-18-12.5c-2.4-5.6-6.9-15.4,2.7-30.7c5.3-7,13.8-17.4,37.2-19.6c11.8-0.5,28.1,1.1,50.1,17.3
			c11,8.4,23.1,21,35,44.3c6.1,11.7,11.3,27.1,15.5,49.2C298.6,262,301.4,291.6,290.6,352z"/>
		<path class="st0" d="M321.3,352c-4.9,0-9.9,0-14.8,0c6.9-63.4,1.7-95.2-4.7-120.5c-6.8-24.3-14.8-42.1-23.8-55.1
			c-17.8-26.1-35.9-38.7-51-44.6c-30.3-11.2-47.6-3.8-57.9,2.4c-19.9,14.3-19.7,28.2-19,36c3.3,16.3,12.2,18.8,15.7,21.6
			c3.6,2,5.4,4.8-3.2,6.5c-4.8-0.8-12.9,2.6-28.1-14.5c-5.4-9.5-19.1-25.1-4.8-66.3c7.5-19.8,27.4-47.2,63.1-70.3
			C227.5,23.7,275.7,7.7,306.4,0c4.9,0,9.9,0,14.8,0c-39.4,9.2-122.1,36.3-156.9,73c-37.5,36-39.5,64.9-38.7,80.6
			c4.8,31.9,17.7,34.6,22.3,38.4c5.7,2.5,8,1.6,9.1,0.9c0.9-0.9,0.7-2.1-1.3-4.7c-1.7-4.8-12.4-12.5-5-35.2
			c5.2-9.6,14.3-29.1,52.3-29.5c18.7,0.4,46.8,10.3,73.3,42.2c13.3,15.6,25.1,37.7,33.9,65.7C318.9,260.1,324.6,294.6,321.3,352z"/>
		<path class="st0" d="M351.9,352c-4.9,0-9.9,0-14.8,0c0.5-38.2-2.7-69.2-10.6-99.3c-7.9-29.6-20.6-58.4-38.3-81.6
			c-35.8-47.4-79.9-55.8-101.7-49.7c-23.5,6-31.8,17.3-37,25.8c-4.8,8.9-5.7,15.6-6.4,19.7c-0.7,7.3-3.9,12.2-11-6
			c-1-9.7-9.3-29,21.6-69.2c13.9-19.5,47.8-42,86.5-57.8c38-16.4,80.7-26.1,97-34c4.9,0,9.9,0,14.8,0
			C351.9,117.3,351.9,234.7,351.9,352z"/>
	</g>
</g>
</svg>
